<svg width="48" height="48" viewBox="0 0 48 48" fill="none" xmlns="http://www.w3.org/2000/svg">
<path d="M25.5001 14.001C25.5001 13.1726 24.8285 12.501 24.0001 12.501C23.1717 12.501 22.5001 13.1726 22.5001 14.001V26.001C22.5001 26.8294 23.1717 27.501 24.0001 27.501C24.8285 27.501 25.5001 26.8294 25.5001 26.001V14.001Z" fill="#FF5353"/>
<path fill-rule="evenodd" clip-rule="evenodd" d="M28.6775 3.4952C25.7001 2.16957 22.3 2.16957 19.3226 3.4952C17.461 4.32406 15.9576 5.91249 14.4052 8.10982C12.8576 10.3002 11.1245 13.3021 8.88555 17.1801L8.80372 17.3218C6.56473 21.1999 4.83161 24.2017 3.70844 26.6371C2.58171 29.0803 1.95776 31.1764 2.17077 33.2031C2.51145 36.4444 4.21149 39.389 6.84824 41.3047C8.49688 42.5025 10.6242 43.0102 13.3033 43.256C15.974 43.501 19.4402 43.501 23.9181 43.501H24.0819C28.5598 43.501 32.0261 43.501 34.6968 43.256C37.376 43.0102 39.5033 42.5025 41.1519 41.3047C43.7887 39.389 45.4887 36.4444 45.8294 33.2031C46.0424 31.1764 45.4184 29.0803 44.2917 26.6371C43.1685 24.2017 41.4354 21.1998 39.1964 17.3217L39.1145 17.1799C36.8756 13.302 35.1425 10.3002 33.595 8.10982C32.0425 5.91249 30.5392 4.32406 28.6775 3.4952ZM20.5428 6.23584C22.7435 5.25602 25.2566 5.25602 27.4573 6.23584C28.564 6.72855 29.6816 7.76989 31.1448 9.84091C32.6035 11.9055 34.2691 14.7874 36.5574 18.751C38.8458 22.7146 40.5088 25.5979 41.5675 27.8935C42.6294 30.1962 42.9724 31.6847 42.8458 32.8895C42.594 35.2853 41.3375 37.4617 39.3886 38.8776C38.4085 39.5896 36.9479 40.0369 34.4228 40.2685C31.9054 40.4995 28.5768 40.501 24.0001 40.501C19.4233 40.501 16.0948 40.4995 13.5774 40.2685C11.0522 40.0369 9.59162 39.5896 8.6116 38.8776C6.6627 37.4617 5.40614 35.2853 5.15434 32.8895C5.02771 31.6847 5.37073 30.1962 6.43269 27.8935C7.49136 25.5979 9.15434 22.7146 11.4427 18.751C13.7311 14.7874 15.3967 11.9055 16.8554 9.84091C18.3186 7.76989 19.4362 6.72855 20.5428 6.23584Z" fill="#FF5353"/>
<path d="M26.0002 32.001C26.0002 33.1055 25.1047 34.001 24.0002 34.001C22.8956 34.001 22.0002 33.1055 22.0002 32.001C22.0002 30.8964 22.8956 30.001 24.0002 30.001C25.1047 30.001 26.0002 30.8964 26.0002 32.001Z" fill="#FF5353"/>
</svg>
