<svg width="20" height="20" viewBox="0 0 20 20" fill="none" xmlns="http://www.w3.org/2000/svg">
<g id="Icon/Outline/arrow-ios-right">
<path id="Mask" fill-rule="evenodd" clip-rule="evenodd" d="M4.16648 8.33291C4.16648 8.14458 4.22981 7.95541 4.35981 7.79958C4.65398 7.44625 5.17981 7.39875 5.53315 7.69291L10.009 11.4229L14.4773 7.82708C14.8357 7.53875 15.3607 7.59541 15.649 7.95375C15.9373 8.31291 15.8807 8.83708 15.5223 9.12625L10.5223 13.1496C10.2131 13.3979 9.77148 13.3946 9.46648 13.1404L4.46648 8.97375C4.26898 8.80875 4.16648 8.57208 4.16648 8.33291Z" fill="white"/>
<mask id="mask0_837_49676" style="mask-type:alpha" maskUnits="userSpaceOnUse" x="4" y="7" width="12" height="7">
<path id="Mask_2" fill-rule="evenodd" clip-rule="evenodd" d="M4.16648 8.33291C4.16648 8.14458 4.22981 7.95541 4.35981 7.79958C4.65398 7.44625 5.17981 7.39875 5.53315 7.69291L10.009 11.4229L14.4773 7.82708C14.8357 7.53875 15.3607 7.59541 15.649 7.95375C15.9373 8.31291 15.8807 8.83708 15.5223 9.12625L10.5223 13.1496C10.2131 13.3979 9.77148 13.3946 9.46648 13.1404L4.46648 8.97375C4.26898 8.80875 4.16648 8.57208 4.16648 8.33291Z" fill="white"/>
</mask>
<g mask="url(#mask0_837_49676)">
<g id="&#240;&#159;&#142;&#168; Color">
<rect id="Base" x="20" width="20" height="20" transform="rotate(90 20 0)" fill="white"/>
</g>
</g>
</g>
</svg>
