<svg width="48" height="48" viewBox="0 0 48 48" fill="none" xmlns="http://www.w3.org/2000/svg">
<path fill-rule="evenodd" clip-rule="evenodd" d="M29.409 16.788L21.841 26.726L18.575 22.554C17.895 21.682 16.635 21.53 15.767 22.212C14.897 22.892 14.743 24.15 15.425 25.018L20.287 31.232C20.667 31.716 21.247 31.998 21.863 31.998H21.877C22.495 31.996 23.079 31.704 23.453 31.21L32.591 19.21C33.261 18.33 33.091 17.078 32.211 16.408C31.329 15.738 30.077 15.91 29.409 16.788M23.9995 39.998C15.1775 39.998 7.99951 32.82 7.99951 23.998C7.99951 15.176 15.1775 7.99805 23.9995 7.99805C32.8215 7.99805 39.9995 15.176 39.9995 23.998C39.9995 32.82 32.8215 39.998 23.9995 39.998M23.9998 3.99902C12.9538 3.99902 3.99976 12.955 3.99976 23.999C3.99976 35.043 12.9538 43.999 23.9998 43.999C35.0458 43.999 43.9998 35.043 43.9998 23.999C43.9998 12.955 35.0458 3.99902 23.9998 3.99902" fill="#21E021"/>
<mask id="mask0_546_13637" style="mask-type:alpha" maskUnits="userSpaceOnUse" x="3" y="3" width="41" height="41">
<path fill-rule="evenodd" clip-rule="evenodd" d="M29.409 16.788L21.841 26.726L18.575 22.554C17.895 21.682 16.635 21.53 15.767 22.212C14.897 22.892 14.743 24.15 15.425 25.018L20.287 31.232C20.667 31.716 21.247 31.998 21.863 31.998H21.877C22.495 31.996 23.079 31.704 23.453 31.21L32.591 19.21C33.261 18.33 33.091 17.078 32.211 16.408C31.329 15.738 30.077 15.91 29.409 16.788M23.9995 39.998C15.1775 39.998 7.99951 32.82 7.99951 23.998C7.99951 15.176 15.1775 7.99805 23.9995 7.99805C32.8215 7.99805 39.9995 15.176 39.9995 23.998C39.9995 32.82 32.8215 39.998 23.9995 39.998M23.9998 3.99902C12.9538 3.99902 3.99976 12.955 3.99976 23.999C3.99976 35.043 12.9538 43.999 23.9998 43.999C35.0458 43.999 43.9998 35.043 43.9998 23.999C43.9998 12.955 35.0458 3.99902 23.9998 3.99902" fill="white"/>
</mask>
<g mask="url(#mask0_546_13637)">
</g>
</svg>
