<svg width="200" height="26" viewBox="0 0 200 26" fill="none" xmlns="http://www.w3.org/2000/svg">
<path d="M18.7126 1.04823C19.244 1.04823 19.6748 1.23471 20.0052 1.60018C20.3353 1.96565 20.5007 2.42805 20.5007 2.98V23.0362C20.5007 23.6327 20.3068 24.1324 19.919 24.5352C19.5312 24.938 19.0501 25.1393 18.4754 25.1393C18.1882 25.1393 17.8936 25.0871 17.5994 24.9829C17.3048 24.8784 17.075 24.7366 16.917 24.5501L3.90403 7.38056L4.76581 6.82865V23.2076C4.76581 23.7596 4.59344 24.2146 4.25593 24.5874C3.91122 24.9529 3.46595 25.1393 2.91296 25.1393C2.35997 25.1393 1.95063 24.9529 1.62028 24.5874C1.28992 24.2219 1.12476 23.7596 1.12476 23.2076V3.15154C1.12476 2.55488 1.31867 2.05513 1.70646 1.65237C2.0799 1.24962 2.56106 1.04823 3.13559 1.04823C3.44441 1.04823 3.76756 1.10791 4.09792 1.23471C4.42827 1.3615 4.67244 1.54795 4.82325 1.80154L17.4484 18.5311L16.8882 18.9414V2.97255C16.8882 2.4206 17.0536 1.96565 17.3837 1.59272C17.7141 1.22725 18.1593 1.04077 18.7126 1.04077V1.04823Z" fill="white"/>
<path d="M131.206 24.8463C130.567 24.8463 130.072 24.6675 129.734 24.3167C129.389 23.9588 129.217 23.4515 129.217 22.7877V22.2062C129.217 21.5421 129.389 21.0275 129.734 20.6769C130.079 20.3191 130.567 20.14 131.206 20.14H131.637C132.276 20.14 132.772 20.3191 133.109 20.6769C133.454 21.0351 133.619 21.5421 133.619 22.2062V22.7877C133.619 23.4515 133.447 23.9661 133.109 24.3167C132.765 24.6749 132.276 24.8463 131.637 24.8463H131.206Z" fill="url(#paint0_linear_692_11698)"/>
<path d="M152.007 1.85975C152.582 2.15807 152.919 2.62797 153.02 3.2694C153.12 3.91083 152.955 4.50006 152.539 5.02215C152.251 5.43239 151.878 5.66361 151.425 5.70835C150.973 5.75309 150.513 5.66361 150.054 5.43239C149.522 5.1788 148.969 4.98487 148.381 4.85062C147.791 4.71637 147.181 4.64177 146.542 4.64177C145.35 4.64177 144.287 4.8357 143.346 5.22354C142.405 5.61138 141.608 6.17079 140.947 6.89428C140.287 7.61776 139.784 8.46804 139.439 9.46003C139.095 10.4446 138.929 11.5335 138.929 12.7269C138.929 14.1291 139.123 15.3448 139.511 16.3741C139.899 17.4034 140.43 18.2686 141.12 18.9548C141.802 19.641 142.614 20.1558 143.54 20.4836C144.466 20.8195 145.472 20.9837 146.556 20.9837C147.152 20.9837 147.748 20.9237 148.345 20.8119C148.94 20.7 149.515 20.4913 150.068 20.1931C150.535 19.9617 150.987 19.8798 151.44 19.9544C151.892 20.0213 152.273 20.2676 152.582 20.6777C153.027 21.2519 153.185 21.8411 153.063 22.453C152.941 23.0645 152.603 23.5046 152.05 23.7805C151.476 24.0788 150.887 24.3251 150.276 24.5188C149.666 24.7129 149.056 24.862 148.438 24.9662C147.82 25.0708 147.188 25.123 146.549 25.123C144.962 25.123 143.454 24.862 142.025 24.3324C140.603 23.8028 139.332 23.0272 138.211 21.9903C137.098 20.961 136.215 19.6708 135.576 18.1194C134.936 16.568 134.613 14.778 134.613 12.7343C134.613 10.9666 134.908 9.34069 135.49 7.84898C136.071 6.35724 136.904 5.06692 137.974 3.97797C139.044 2.88901 140.308 2.03873 141.766 1.43459C143.224 0.830442 144.811 0.524658 146.535 0.524658C147.504 0.524658 148.459 0.63654 149.386 0.867724C150.312 1.09894 151.188 1.42713 152 1.8672L152.007 1.85975Z" fill="white"/>
<path d="M176.582 12.9133C176.582 14.6363 176.302 16.2398 175.756 17.7316C175.203 19.2233 174.428 20.5359 173.422 21.6697C172.417 22.8035 171.225 23.691 169.846 24.3397C168.467 24.9812 166.959 25.3021 165.322 25.3021C163.684 25.3021 162.183 24.9812 160.819 24.3397C159.447 23.6983 158.262 22.8108 157.257 21.6697C156.251 20.5359 155.476 19.2233 154.923 17.7316C154.37 16.2398 154.097 14.6363 154.097 12.9133C154.097 11.1904 154.37 9.58682 154.923 8.09511C155.476 6.60337 156.251 5.29069 157.257 4.15696C158.262 3.02326 159.447 2.1357 160.819 1.48682C162.19 0.845356 163.691 0.524658 165.322 0.524658C166.952 0.524658 168.46 0.845356 169.846 1.48682C171.225 2.12825 172.417 3.01581 173.422 4.15696C174.428 5.29069 175.203 6.60337 175.756 8.09511C176.309 9.58682 176.582 11.1904 176.582 12.9133ZM172.273 12.9133C172.273 11.3769 171.972 9.98211 171.376 8.72908C170.78 7.47605 169.961 6.48403 168.927 5.75313C167.885 5.02219 166.686 4.64922 165.314 4.64922C163.943 4.64922 162.743 5.01469 161.702 5.75313C160.661 6.48403 159.849 7.47605 159.268 8.71417C158.678 9.95229 158.391 11.3545 158.391 12.9133C158.391 14.4722 158.686 15.8446 159.268 17.0976C159.849 18.3507 160.661 19.3426 161.702 20.0735C162.743 20.8046 163.943 21.1774 165.314 21.1774C166.686 21.1774 167.885 20.8119 168.927 20.0735C169.968 19.3426 170.78 18.3507 171.376 17.0976C171.972 15.8446 172.273 14.4573 172.273 12.9133Z" fill="white"/>
<path d="M179.673 1.04077C179.982 1.04077 180.306 1.13028 180.65 1.30182C180.995 1.47338 181.254 1.69711 181.426 1.9731L189.477 14.8391L187.818 14.772L196.069 1.9731C196.486 1.35405 197.031 1.04077 197.692 1.04077C198.223 1.04077 198.698 1.23471 199.114 1.62255C199.531 2.01039 199.746 2.51757 199.746 3.13662V23.0585C199.746 23.655 199.559 24.155 199.186 24.5578C198.813 24.9606 198.31 25.1616 197.692 25.1616C197.074 25.1616 196.572 24.9606 196.184 24.5578C195.796 24.155 195.602 23.655 195.602 23.0585V6.85102L196.895 7.16426L190.137 17.8673C189.936 18.1209 189.692 18.3372 189.39 18.5237C189.089 18.7101 188.787 18.7847 188.478 18.7623C188.191 18.7847 187.896 18.7027 187.602 18.5237C187.301 18.3372 187.056 18.1209 186.855 17.8673L180.528 7.47753L181.39 5.65018V23.0585C181.39 23.655 181.21 24.155 180.858 24.5578C180.507 24.9606 180.04 25.1616 179.465 25.1616C178.891 25.1616 178.46 24.9606 178.108 24.5578C177.756 24.155 177.577 23.655 177.577 23.0585V3.13662C177.577 2.56234 177.778 2.07007 178.187 1.65983C178.596 1.24962 179.085 1.04077 179.659 1.04077H179.673Z" fill="white"/>
<path d="M36.4227 19.5828H27.5033C27.094 19.5828 26.7206 19.8738 26.5626 20.3139L25.2625 23.8937C24.9827 24.662 24.3362 25.1693 23.6253 25.1693C22.3327 25.1693 21.4708 23.6031 22.0022 22.2156L29.3418 3.0546C29.8084 1.8314 30.8498 1.04077 31.9918 1.04077C33.1335 1.04077 34.1678 1.82394 34.6419 3.04715L42.0029 22.2083C42.5343 23.5954 41.6724 25.1616 40.3798 25.1616H40.3154C39.6041 25.1616 38.965 24.6697 38.6778 23.9014L37.3563 20.3062C37.1913 19.8662 36.8249 19.5828 36.4156 19.5828H36.4227ZM35.4534 15.0256L32.5521 7.11952C32.3293 6.51537 31.604 6.52283 31.3812 7.11952L28.5017 15.0256C28.3219 15.5179 28.6309 16.0623 29.0831 16.0623H34.8717C35.3313 16.0623 35.6329 15.5104 35.4534 15.0182V15.0256Z" fill="white"/>
<path fill-rule="evenodd" clip-rule="evenodd" d="M115.526 24.7053C116.761 25.108 118.154 25.3094 119.698 25.3094L119.705 25.3021C121.214 25.3021 122.607 25.0185 123.9 24.4443C125.192 23.8701 126.234 23.0495 127.031 21.968C127.828 20.8864 128.223 19.6037 128.223 18.112C128.223 16.941 128.058 15.949 127.727 15.136C127.397 14.323 126.894 13.6443 126.234 13.1073C125.573 12.5628 124.74 12.1227 123.734 11.7796C122.729 11.4365 121.566 11.1382 120.237 10.8846C119.224 10.6758 118.355 10.4371 117.623 10.1761C116.89 9.91501 116.337 9.55699 115.949 9.10947C115.562 8.66194 115.368 8.09511 115.368 7.40891C115.368 6.83459 115.533 6.32741 115.863 5.89483C116.194 5.46222 116.682 5.11912 117.335 4.86553C117.982 4.61194 118.786 4.48515 119.734 4.48515C120.309 4.48515 120.926 4.58212 121.587 4.77602C122.248 4.96995 122.88 5.21609 123.476 5.4995C124.072 5.78295 124.546 6.08874 124.898 6.40947C125.163 6.61832 125.465 6.72271 125.795 6.72271C126.305 6.72271 126.751 6.51389 127.124 6.10365C127.497 5.68598 127.684 5.231 127.684 4.72382C127.684 4.03016 127.361 3.42602 126.722 2.89647C125.953 2.21027 124.955 1.64344 123.727 1.19591C122.499 0.748387 121.17 0.524658 119.734 0.524658C118.212 0.524658 116.818 0.800618 115.562 1.35253C114.305 1.90449 113.307 2.71003 112.567 3.76166C111.82 4.81334 111.454 6.08874 111.454 7.58044C111.454 8.57246 111.612 9.46002 111.921 10.2506C112.23 11.0412 112.682 11.7349 113.292 12.3166C113.903 12.9059 114.657 13.3832 115.562 13.7636C116.466 14.144 117.515 14.42 118.707 14.6064C119.971 14.7929 121.005 15.0465 121.824 15.3821C122.643 15.7178 123.253 16.1205 123.648 16.6053C124.043 17.0827 124.244 17.6719 124.244 18.3581C124.244 18.9324 124.029 19.4396 123.612 19.8871C123.188 20.3345 122.635 20.6927 121.953 20.9537C121.264 21.2147 120.517 21.3492 119.698 21.3492C118.484 21.3492 117.458 21.1624 116.632 20.7969C115.806 20.4317 114.973 19.8871 114.132 19.1786C113.802 18.9026 113.422 18.7683 113.005 18.7683C112.459 18.7683 112 18.9697 111.633 19.3725C111.267 19.7752 111.088 20.2377 111.088 20.7673C111.088 21.0878 111.159 21.4087 111.317 21.7293C111.468 22.0502 111.691 22.3335 111.978 22.5871C113.106 23.6014 114.29 24.3025 115.526 24.7053ZM46.546 1.30936C46.2011 1.13779 45.878 1.04832 45.5694 1.04832H45.562C44.9876 1.04832 44.4991 1.25713 44.0898 1.66738C43.6805 2.07759 43.4792 2.56985 43.4792 3.14417V23.0659C43.4792 23.6627 43.6587 24.1624 44.0107 24.5652C44.3626 24.968 44.7937 25.1694 45.3681 25.1694C45.9428 25.1694 46.4094 24.968 46.7614 24.5652C47.1133 24.1624 47.2928 23.6627 47.2928 23.0659V8.90023L52.7579 17.8748C52.9589 18.1285 53.2031 18.3447 53.5047 18.5312C53.7993 18.7102 54.0939 18.7923 54.381 18.7699C54.6897 18.7923 54.9913 18.7177 55.2929 18.5312C55.5945 18.3447 55.8388 18.1285 56.0401 17.8748L61.5052 9.21912V23.0659C61.5052 23.6627 61.6991 24.1624 62.087 24.5652C62.4745 24.968 62.9774 25.1694 63.595 25.1694C64.2126 25.1694 64.7152 24.968 65.0886 24.5652C65.462 24.1624 65.6489 23.6627 65.6489 23.0659V3.13671C65.6489 2.51766 65.4335 2.01044 65.0168 1.6226C64.6005 1.23476 64.1264 1.04083 63.595 1.04083C62.9341 1.04083 62.3886 1.3541 61.9719 1.97316L54.5337 13.507L47.3216 1.98062C47.1492 1.70466 46.8905 1.4809 46.546 1.30936ZM109.055 23.0436C108.933 22.4843 108.631 22.0516 108.143 21.7533C107.856 21.5965 107.662 21.3655 107.561 21.0673C107.461 20.7687 107.396 20.4032 107.36 19.9631C107.324 19.5307 107.267 19.0235 107.18 18.4492C107.137 17.8301 107.001 17.2483 106.764 16.7113C106.534 16.1743 106.211 15.6671 105.802 15.1972C105.543 14.8989 105.234 14.6229 104.882 14.3768C105.356 14.0635 105.794 13.6757 106.197 13.2207C106.778 12.5569 107.245 11.811 107.59 10.9831C107.935 10.1552 108.107 9.3124 108.107 8.43975C108.107 6.99278 107.798 5.71738 107.18 4.60605C106.563 3.49473 105.752 2.62205 104.746 1.98807C103.741 1.3541 102.663 1.04083 101.514 1.04083H91.9699C91.3955 1.04083 90.9141 1.24222 90.5266 1.64497C90.1388 2.04776 89.9448 2.54748 89.9448 3.14417C89.9448 4.17344 90.749 5.00135 91.733 5.00135H101.342C101.938 5.00135 102.498 5.33699 103.015 6.0157C103.532 6.69445 103.791 7.53727 103.791 8.54417C103.791 9.32731 103.669 10.0433 103.425 10.6923C103.18 11.3486 102.872 11.8632 102.498 12.2436C102.125 12.624 101.737 12.8105 101.342 12.8105H91.4888C90.6343 12.8105 89.9448 13.5265 89.9448 14.4141V23.0286C89.9448 23.6255 90.1887 24.1251 90.6772 24.5279C91.1657 24.9307 91.7186 25.1321 92.3362 25.1321C92.8891 25.1321 93.3202 24.9307 93.6289 24.5279C93.9375 24.1251 94.0955 23.6255 94.0955 23.0286V16.3533H100.293C100.803 16.3533 101.241 16.413 101.622 16.5398C101.995 16.6666 102.304 16.853 102.548 17.0917C102.792 17.3304 102.979 17.6212 103.109 17.9494C103.238 18.2851 103.309 18.6431 103.309 19.0309C103.309 20.2244 103.425 21.2014 103.654 21.9547C103.884 22.708 104.193 23.3122 104.567 23.7596C104.94 24.2073 105.32 24.5429 105.694 24.7739C105.938 24.9084 106.247 25.0202 106.62 25.1021C106.994 25.1843 107.367 25.1843 107.748 25.1021C108.121 25.0202 108.43 24.8338 108.674 24.5352C109.048 24.1028 109.177 23.6032 109.055 23.0363V23.0436ZM73.2974 19.5828H82.2097C82.6194 19.5828 82.9854 19.8662 83.1508 20.3063L84.472 23.9014C84.7595 24.6697 85.3986 25.162 86.1095 25.162H86.1743C87.4669 25.162 88.3284 23.5955 87.797 22.2084L80.436 3.0472C79.962 1.824 78.928 1.04083 77.7859 1.04083C76.6443 1.04083 75.6029 1.83145 75.1359 3.05466L67.7963 22.2157C67.2649 23.6032 68.1268 25.1694 69.4195 25.1694C70.1304 25.1694 70.7769 24.662 71.057 23.8938L72.3567 20.314C72.5147 19.8739 72.8881 19.5828 73.2974 19.5828ZM78.3462 7.11957L81.2476 15.0257V15.0182C81.427 15.5105 81.1254 16.0624 80.6658 16.0624H74.8776C74.425 16.0624 74.1163 15.5179 74.2958 15.0257L77.1757 7.11957C77.3981 6.52288 78.1235 6.51543 78.3462 7.11957Z" fill="url(#paint1_linear_692_11698)"/>
<defs>
<linearGradient id="paint0_linear_692_11698" x1="144.104" y1="22.4895" x2="43.9934" y2="22.4895" gradientUnits="userSpaceOnUse">
<stop stop-color="#FF8125"/>
<stop offset="0.81" stop-color="#FFA42D"/>
<stop offset="1" stop-color="#FFE53B"/>
</linearGradient>
<linearGradient id="paint1_linear_692_11698" x1="128.281" y1="14.4619" x2="43.5386" y2="14.4619" gradientUnits="userSpaceOnUse">
<stop stop-color="#FF8125"/>
<stop offset="0.81" stop-color="#FFA42D"/>
<stop offset="1" stop-color="#FFE53B"/>
</linearGradient>
</defs>
</svg>
