<svg width="200" height="32" viewBox="0 0 200 32" fill="none" xmlns="http://www.w3.org/2000/svg">
<path d="M21.044 3.28747C21.6493 3.28747 22.1401 3.49449 22.5165 3.9003C22.8928 4.30611 23.0812 4.81956 23.0812 5.43243V27.702C23.0812 28.3645 22.8603 28.9195 22.4185 29.3664C21.9767 29.8137 21.4284 30.0373 20.7741 30.0373C20.4468 30.0373 20.1114 29.9792 19.7761 29.8633C19.4407 29.7474 19.1792 29.59 18.9993 29.3831L4.17648 10.3186L5.15814 9.70577V27.8924C5.15814 28.5051 4.96181 29.0106 4.57732 29.4245C4.18467 29.8303 3.67751 30.0373 3.04761 30.0373C2.41775 30.0373 1.95148 29.8303 1.57517 29.4245C1.19887 29.0187 1.01074 28.5051 1.01074 27.8924V5.6229C1.01074 4.96038 1.23161 4.40549 1.67334 3.95828C2.09872 3.51107 2.6468 3.28747 3.30121 3.28747C3.65297 3.28747 4.02108 3.35371 4.39734 3.49448C4.77364 3.6353 5.05178 3.84231 5.22357 4.1239L19.6045 22.6998L18.9663 23.1553V5.42414C18.9663 4.81131 19.1547 4.30611 19.5306 3.892C19.907 3.48623 20.4143 3.27917 21.044 3.27917V3.28747Z" fill="white"/>
<path d="M173.995 27.7102C173.856 27.0889 173.513 26.6086 172.956 26.2776C172.629 26.1036 172.408 25.8466 172.294 25.5155C172.179 25.1842 172.106 24.7785 172.065 24.2898C172.024 23.8095 171.958 23.2463 171.86 22.6087C171.811 21.9213 171.656 21.2753 171.386 20.679C171.124 20.0827 170.756 19.5196 170.289 18.9978C169.995 18.6666 169.643 18.3601 169.242 18.0868C169.783 17.739 170.281 17.3084 170.74 16.8032C171.402 16.0661 171.934 15.2379 172.327 14.3187C172.719 13.3994 172.915 12.4636 172.915 11.4946C172.915 9.88797 172.564 8.47181 171.86 7.23782C171.157 6.00386 170.232 5.03491 169.087 4.33096C167.942 3.627 166.715 3.27917 165.406 3.27917H154.534C153.88 3.27917 153.332 3.50278 152.89 3.94999C152.448 4.3972 152.228 4.95208 152.228 5.6146C152.228 6.75747 153.144 7.67677 154.265 7.67677H165.21C165.889 7.67677 166.527 8.04945 167.116 8.80305C167.704 9.55669 167.999 10.4925 167.999 11.6106C167.999 12.4801 167.86 13.2752 167.582 13.9957C167.304 14.7245 166.952 15.2959 166.527 15.7183C166.101 16.1406 165.66 16.3477 165.21 16.3477H153.986C153.013 16.3477 152.228 17.1427 152.228 18.1282V27.6935C152.228 28.3563 152.506 28.911 153.062 29.3582C153.618 29.8055 154.248 30.0292 154.952 30.0292C155.582 30.0292 156.072 29.8055 156.424 29.3582C156.776 28.911 156.956 28.3563 156.956 27.6935V20.2815H164.015C164.596 20.2815 165.095 20.3477 165.529 20.4886C165.954 20.6293 166.306 20.8364 166.584 21.1014C166.862 21.3664 167.075 21.6894 167.222 22.0538C167.369 22.4265 167.451 22.824 167.451 23.2546C167.451 24.5797 167.582 25.6646 167.844 26.5009C168.105 27.3373 168.457 28.0082 168.882 28.5051C169.308 29.002 169.742 29.3749 170.167 29.6315C170.445 29.7807 170.797 29.9048 171.222 29.9958C171.647 30.0869 172.073 30.0869 172.507 29.9958C172.932 29.9048 173.284 29.6978 173.562 29.3664C173.987 28.8862 174.134 28.3311 173.995 27.702V27.7102Z" fill="white"/>
<path d="M42.4949 23.8675H32.3353C31.869 23.8675 31.4436 24.1905 31.2637 24.6791L29.7832 28.6544C29.4639 29.5075 28.7277 30.0706 27.918 30.0706C26.4455 30.0706 25.4639 28.3311 26.0692 26.7908L34.4295 5.51522C34.9612 4.15704 36.1473 3.27917 37.4478 3.27917C38.7484 3.27917 39.9264 4.14875 40.4666 5.50697L48.851 26.7827C49.4566 28.323 48.475 30.0621 47.0026 30.0621H46.9287C46.119 30.0621 45.3908 29.5156 45.0638 28.6625L43.5585 24.6708C43.3705 24.1822 42.9532 23.8675 42.4869 23.8675H42.4949ZM41.3908 18.8074L38.086 10.0287C37.8322 9.35793 37.006 9.36623 36.7526 10.0287L33.4723 18.8074C33.2679 19.3539 33.6197 19.9585 34.135 19.9585H40.7281C41.2518 19.9585 41.5952 19.3456 41.3908 18.7991V18.8074Z" fill="white"/>
<path fill-rule="evenodd" clip-rule="evenodd" d="M133.86 30.4115C132.101 30.4115 130.514 30.1879 129.107 29.7406C127.7 29.2933 126.35 28.515 125.066 27.3886C124.739 27.1069 124.485 26.7925 124.314 26.4363C124.133 26.0801 124.052 25.724 124.052 25.3679C124.052 24.7799 124.256 24.2664 124.673 23.8192C125.09 23.372 125.614 23.1484 126.236 23.1484C126.71 23.1484 127.144 23.2974 127.52 23.6039C128.477 24.3906 129.426 24.9952 130.367 25.401C131.307 25.8069 132.477 26.0138 133.86 26.0138C134.792 26.0138 135.643 25.8646 136.428 25.5749C137.206 25.2851 137.835 24.8876 138.318 24.3907C138.793 23.8937 139.038 23.3306 139.038 22.6929C139.038 21.931 138.809 21.2767 138.359 20.7467C137.909 20.2084 137.214 19.7612 136.281 19.3885C135.348 19.0158 134.171 18.7342 132.731 18.5272C131.373 18.3202 130.179 18.0137 129.148 17.5914C128.117 17.169 127.258 16.639 126.563 15.9847C125.868 15.3388 125.352 14.5686 125 13.6907C124.649 12.8128 124.469 11.8273 124.469 10.7259C124.469 9.0695 124.886 7.65333 125.737 6.48562C126.579 5.31791 127.716 4.42349 129.148 3.81062C130.58 3.19779 132.167 2.89136 133.9 2.89136C135.537 2.89136 137.05 3.13981 138.449 3.63671C139.848 4.13361 140.985 4.76302 141.86 5.52492C142.588 6.11295 142.956 6.78376 142.956 7.55395C142.956 8.11709 142.744 8.62229 142.318 9.08605C141.893 9.54155 141.386 9.77345 140.805 9.77345C140.428 9.77345 140.085 9.65752 139.782 9.42562C139.381 9.0695 138.842 8.72996 138.163 8.41523C137.484 8.10054 136.764 7.82725 136.011 7.61194C135.258 7.39659 134.555 7.28895 133.9 7.28895C132.821 7.28895 131.905 7.42973 131.168 7.71132C130.424 7.99287 129.868 8.37384 129.492 8.85419C129.115 9.33454 128.927 9.89768 128.927 10.5353C128.927 11.2973 129.148 11.9267 129.59 12.4236C130.031 12.9205 130.661 13.318 131.496 13.6079C132.33 13.8977 133.32 14.1628 134.473 14.3947C135.987 14.6762 137.312 15.0075 138.457 15.3884C139.602 15.7694 140.551 16.258 141.304 16.8626C142.056 17.4589 142.629 18.2125 143.005 19.1152C143.381 20.0179 143.57 21.1194 143.57 22.4196C143.57 24.0759 143.12 25.5004 142.212 26.701C141.304 27.9022 140.118 28.8131 138.645 29.4507C137.173 30.0883 135.586 30.403 133.868 30.403L133.86 30.4115ZM53.9189 3.28725C54.2707 3.28725 54.639 3.38663 55.0314 3.57709C55.4242 3.76756 55.7186 4.01601 55.915 4.32244L64.1302 17.1208L72.6026 4.31415C73.077 3.62678 73.6987 3.27895 74.4514 3.27895C75.0567 3.27895 75.5965 3.49426 76.0709 3.92492C76.5456 4.35558 76.791 4.91872 76.791 5.60613V27.7348C76.791 28.3972 76.5781 28.9522 76.1528 29.3995C75.7274 29.8468 75.1547 30.0704 74.4514 30.0704C73.7477 30.0704 73.1754 29.8468 72.7336 29.3995C72.2918 28.9522 72.0709 28.3972 72.0709 27.7348V12.3598L65.8457 21.9707C65.6168 22.2523 65.3385 22.4925 64.9951 22.6995C64.6513 22.9066 64.3078 22.9894 63.956 22.9645C63.629 22.9894 63.2937 22.8983 62.9583 22.6995C62.6145 22.4925 62.3366 22.2523 62.1072 21.9707L55.8821 12.0057V27.7348C55.8821 28.3972 55.6777 28.9522 55.2768 29.3995C54.876 29.8468 54.3442 30.0704 53.6899 30.0704C53.0356 30.0704 52.5448 29.8468 52.144 29.3995C51.7431 28.9522 51.5387 28.3972 51.5387 27.7348V5.61438C51.5387 4.97671 51.7676 4.43012 52.2339 3.97461C52.7003 3.51911 53.2565 3.28725 53.9108 3.28725H53.9189ZM144.924 29.2344C145.309 29.6239 145.873 29.8224 146.601 29.8224H147.092C147.82 29.8224 148.376 29.6321 148.769 29.2344C149.154 28.8452 149.35 28.2739 149.35 27.5367V26.891C149.35 26.1538 149.162 25.5906 148.769 25.1931C148.385 24.7955 147.82 24.5968 147.092 24.5968H146.601C145.873 24.5968 145.317 24.7955 144.924 25.1931C144.532 25.5823 144.335 26.1538 144.335 26.891V27.5367C144.335 28.2739 144.532 28.8371 144.924 29.2344ZM123.235 27.71C123.096 27.0886 122.752 26.6084 122.196 26.2774C121.869 26.1034 121.648 25.8464 121.534 25.5153C121.419 25.184 121.345 24.7783 121.304 24.2896C121.264 23.8093 121.198 23.2461 121.1 22.6084C121.051 21.921 120.896 21.2751 120.626 20.6788C120.364 20.0825 119.996 19.5193 119.53 18.9976C119.235 18.6664 118.883 18.3599 118.482 18.0866C119.022 17.7388 119.521 17.3081 119.979 16.8029C120.642 16.0659 121.174 15.2377 121.566 14.3185C121.959 13.3992 122.155 12.4634 122.155 11.4944C122.155 9.88775 121.804 8.47159 121.1 7.2376C120.397 6.00364 119.472 5.03469 118.327 4.33074C117.182 3.62678 115.955 3.27895 114.646 3.27895H103.774C103.12 3.27895 102.572 3.50256 102.13 3.94977C101.688 4.39698 101.467 4.95186 101.467 5.61438C101.467 6.75725 102.384 7.67655 103.504 7.67655H114.449C115.129 7.67655 115.766 8.04922 116.356 8.80283C116.945 9.55647 117.239 10.4923 117.239 11.6103C117.239 12.4799 117.1 13.275 116.822 13.9955C116.544 14.7243 116.192 15.2957 115.766 15.7181C115.341 16.1404 114.899 16.3475 114.449 16.3475H103.226C102.253 16.3475 101.467 17.1425 101.467 18.128V27.6933C101.467 28.3561 101.746 28.9107 102.302 29.358C102.858 29.8053 103.488 30.029 104.191 30.029C104.821 30.029 105.312 29.8053 105.664 29.358C106.016 28.9107 106.196 28.3561 106.196 27.6933V20.2813H113.255C113.836 20.2813 114.335 20.3475 114.768 20.4883C115.194 20.6291 115.546 20.8362 115.824 21.1012C116.102 21.3662 116.315 21.6891 116.462 22.0536C116.609 22.4262 116.691 22.8238 116.691 23.2544C116.691 24.5795 116.822 25.6644 117.083 26.5007C117.345 27.3371 117.697 28.008 118.123 28.5049C118.548 29.0018 118.981 29.3747 119.407 29.6313C119.685 29.7805 120.037 29.9045 120.462 29.9956C120.887 30.0867 121.313 30.0867 121.746 29.9956C122.172 29.9045 122.523 29.6976 122.802 29.3662C123.227 28.8859 123.374 28.3309 123.235 27.7018V27.71ZM84.0042 23.8672H94.1559C94.6222 23.8672 95.0395 24.1819 95.2274 24.6706L96.7328 28.6623C97.0601 29.5154 97.7879 30.0619 98.5977 30.0619H98.6715C100.144 30.0619 101.126 28.3228 100.52 26.7824L92.1356 5.50674C91.5957 4.14853 90.4177 3.27895 89.1168 3.27895C87.8163 3.27895 86.6302 4.15682 86.0984 5.515L77.7382 26.7906C77.1329 28.3309 78.1145 30.0704 79.5869 30.0704C80.3967 30.0704 81.1329 29.5072 81.4522 28.6541L82.9327 24.6788C83.1126 24.1902 83.5379 23.8672 84.0042 23.8672ZM89.755 10.0285L93.0598 18.8071V18.7988C93.2642 19.3454 92.9208 19.9583 92.397 19.9583H85.804C85.2887 19.9583 84.9369 19.3537 85.1413 18.8071L88.4215 10.0285C88.6754 9.36601 89.5016 9.35771 89.755 10.0285Z" fill="url(#paint0_linear_692_10734)"/>
<path d="M179.748 27.3853C177.736 25.3317 176.73 22.3999 176.73 18.5738V6.085C176.73 4.75163 177.802 3.66675 179.119 3.66675H179.192C180.509 3.66675 181.581 4.75163 181.581 6.085V18.3833C181.581 23.5677 183.789 26.1598 188.215 26.1598C192.64 26.1598 194.816 23.5677 194.816 18.3833V6.085C194.816 4.75163 195.888 3.66675 197.205 3.66675C198.522 3.66675 199.594 4.75163 199.594 6.085V18.5738C199.594 22.3999 198.596 25.3399 196.591 27.3853C194.587 29.4311 191.79 30.4582 188.19 30.4582C184.591 30.4582 181.777 29.4311 179.765 27.3853H179.748Z" fill="white"/>
<defs>
<linearGradient id="paint0_linear_692_10734" x1="148.208" y1="16.8448" x2="51.5387" y2="16.8448" gradientUnits="userSpaceOnUse">
<stop stop-color="#FF8125"/>
<stop offset="0.81" stop-color="#FFA42D"/>
<stop offset="1" stop-color="#FFE53B"/>
</linearGradient>
</defs>
</svg>
