<svg width="160" height="20" viewBox="0 0 160 20" fill="none" xmlns="http://www.w3.org/2000/svg">
<g clip-path="url(#clip0_502_31072)">
<path d="M6.63829 3.56853H1.79524C0.907851 3.56853 0.188477 2.84914 0.188477 1.96175C0.188477 1.07436 0.907851 0.35498 1.79524 0.35498H15.0246C15.9121 0.35498 16.6314 1.07436 16.6314 1.96175C16.6314 2.84914 15.9121 3.56853 15.0246 3.56853H10.1816V16.6528C10.1816 17.6313 9.38838 18.4244 8.40993 18.4244C7.43148 18.4244 6.63829 17.6313 6.63829 16.6528V3.56853Z" fill="white"/>
<path d="M19.5125 2.13963C19.5125 1.15399 20.3115 0.35498 21.2971 0.35498C22.2827 0.35498 23.0817 1.15399 23.0817 2.13963V10.4508C23.0702 11.2017 23.1806 11.9493 23.4084 12.6618C23.6088 13.2776 23.9423 13.8373 24.3832 14.2977C24.8373 14.7579 25.386 15.1045 25.9877 15.3111C26.7067 15.5569 27.4602 15.6754 28.2168 15.6618C28.9717 15.6745 29.7234 15.556 30.4409 15.3111C31.0444 15.1053 31.595 14.7587 32.0504 14.2977C32.4913 13.8373 32.8248 13.2776 33.0252 12.6618C33.253 11.9493 33.3634 11.2017 33.3519 10.4508V2.13962C33.3519 1.15399 34.1509 0.35498 35.1365 0.35498C36.1223 0.35498 36.9212 1.15399 36.9212 2.13962V10.9032C36.9357 12.0274 36.7364 13.1435 36.3351 14.1872C35.9577 15.1536 35.3765 16.0194 34.6348 16.7209C33.8422 17.4542 32.9124 18.0088 31.9039 18.3497C30.7137 18.7515 29.4679 18.9458 28.2168 18.9248C26.9657 18.9458 25.7199 18.7515 24.5297 18.3497C23.5212 18.0088 22.5914 17.4542 21.7988 16.7209C21.0576 16.019 20.4766 15.1533 20.0984 14.1872C19.6971 13.1435 19.4979 12.0274 19.5125 10.9032V2.13963Z" fill="url(#paint0_linear_502_31072)"/>
<path d="M39.7344 2.13034C39.7344 1.15068 40.5287 0.356505 41.5082 0.356505H49.0655C50.0698 0.33945 51.0717 0.465603 52.0427 0.731405C52.8012 0.939391 53.5153 1.29086 54.1496 1.76801C54.6836 2.17528 55.111 2.7131 55.3945 3.33328C55.6691 3.9471 55.8089 4.61616 55.8036 5.29245C55.8188 6.39595 55.4452 7.46749 54.7527 8.30723C55.5169 8.75938 56.1409 9.42687 56.5521 10.2319C56.9569 11.0621 57.1598 11.9819 57.1435 12.9115C57.1549 13.6909 57.0161 14.4649 56.7359 15.1885C56.4656 15.8635 56.0402 16.4601 55.4963 16.9266C54.8773 17.4423 54.1617 17.82 53.3943 18.0358C52.4208 18.3108 51.4144 18.441 50.4054 18.4227H41.5082C40.5287 18.4227 39.7344 17.6286 39.7344 16.6489V2.13034ZM50.4271 7.28965C50.7314 7.28965 51.0305 7.30001 51.3211 7.3242C51.5534 7.11287 51.74 6.85339 51.8688 6.56259C51.998 6.27179 52.0664 5.95615 52.0696 5.63626C52.0813 5.33854 52.0192 5.04259 51.8894 4.77673C51.7592 4.51086 51.5651 4.28395 51.326 4.11764C50.8315 3.75943 50.1074 3.58034 49.1542 3.58034H43.2849V7.29483L50.4271 7.28965ZM50.4941 15.2266C51.4474 15.2266 52.1714 15.0146 52.666 14.5908C53.1605 14.1669 53.4078 13.5703 53.4078 12.8009C53.4078 12.0304 53.1605 11.4297 52.666 10.999C52.1714 10.5682 51.4474 10.3522 50.4941 10.3511H43.2849V15.2266H50.4941Z" fill="white"/>
<path d="M59.9561 2.257C59.9561 1.20654 60.8075 0.35498 61.858 0.35498C62.9084 0.35498 63.7602 1.20654 63.7602 2.257V16.7129C63.7602 17.7633 62.9084 18.6149 61.858 18.6149C60.8075 18.6149 59.9561 17.7633 59.9561 16.7129V2.257Z" fill="white"/>
<path d="M74.3117 10.048L69.534 3.96219C68.6113 2.78663 69.4485 1.06445 70.9432 1.06445C71.4973 1.06445 72.0202 1.32091 72.3598 1.75906L76.6915 7.35277L81.0626 1.73634C81.3925 1.31239 81.8998 1.06445 82.4369 1.06445C83.8986 1.06445 84.7099 2.75607 83.7953 3.89596L78.8868 10.0131L84.0054 16.4289C84.937 17.5964 84.1057 19.3233 82.6122 19.3233C82.0687 19.3233 81.5553 19.0756 81.2169 18.6504L76.5301 12.759L71.7105 18.6832C71.3813 19.0882 70.8871 19.3233 70.3649 19.3233C68.9001 19.3233 68.0948 17.6198 69.0242 16.4876L74.3117 10.048Z" fill="url(#paint1_linear_502_31072)"/>
<path d="M90.9814 18.9158C92.0496 18.9158 92.916 18.017 92.916 16.9081C92.916 15.7993 92.0496 14.9004 90.9814 14.9004C89.9129 14.9004 89.0469 15.7993 89.0469 16.9081C89.0469 18.017 89.9129 18.9158 90.9814 18.9158Z" fill="white"/>
<path d="M95.7875 9.41368C95.7776 8.13967 96.0199 6.87748 96.4995 5.70757C96.9725 4.56525 97.677 3.54562 98.5643 2.72025C99.531 1.83542 100.653 1.15844 101.867 0.727532C103.289 0.223086 104.782 -0.0224133 106.282 0.00160643C107.616 -0.0106516 108.947 0.142832 110.246 0.458867C110.916 0.626735 111.571 0.851902 112.205 1.13169C113.004 1.48456 113.249 2.46285 112.811 3.21846L112.558 3.65382C112.229 4.22166 111.489 4.37978 110.88 4.13297C110.46 3.96225 110.03 3.82137 109.592 3.71129C109.126 3.59415 108.654 3.50447 108.178 3.44261C107.7 3.38057 107.218 3.34909 106.736 3.34832C105.697 3.33508 104.662 3.48867 103.668 3.80381C102.843 4.06024 102.073 4.48326 101.402 5.04926C100.8 5.56623 100.32 6.22191 99.9983 6.96546C99.6729 7.73456 99.509 8.56837 99.5179 9.41013C99.5087 10.283 99.6783 11.1478 100.015 11.9455C100.348 12.7151 100.841 13.3961 101.458 13.9382C102.139 14.5267 102.923 14.9708 103.764 15.246C104.762 15.5744 105.802 15.7336 106.847 15.7175C107.366 15.717 107.883 15.6771 108.396 15.5983C108.898 15.5209 109.394 15.4116 109.883 15.2709C110.354 15.1345 110.818 14.9676 111.27 14.7709C111.975 14.4647 112.827 14.6781 113.212 15.3437L113.368 15.6124C113.815 16.3856 113.587 17.3862 112.782 17.7753C112.149 18.0816 111.492 18.3308 110.816 18.5197C109.501 18.8951 108.143 19.0812 106.78 19.0731C104.962 19.0731 103.367 18.8252 101.996 18.3294C100.73 17.8975 99.5605 17.201 98.5575 16.2815C97.6536 15.4367 96.9437 14.3873 96.4807 13.2123C96.0132 12.0068 95.7776 10.7157 95.7875 9.41368Z" fill="white"/>
<path d="M117.074 9.47455C117.059 8.15266 117.31 6.84225 117.813 5.62906C118.289 4.48546 118.995 3.46269 119.884 2.63038C120.82 1.76739 121.911 1.10777 123.094 0.689866C124.426 0.215606 125.826 -0.0173599 127.233 0.00100717C128.638 -0.0165164 130.036 0.216438 131.366 0.689866C132.548 1.10755 133.639 1.76721 134.575 2.63038C135.462 3.46366 136.168 4.48617 136.646 5.62906C137.148 6.84225 137.4 8.15266 137.384 9.47455C137.399 10.8068 137.148 12.1275 136.646 13.3521C136.169 14.5054 135.463 15.5395 134.575 16.3862C133.64 17.2606 132.55 17.9322 131.366 18.3623C130.038 18.8489 128.64 19.0893 127.233 19.0724C125.825 19.0901 124.424 18.8498 123.094 18.3623C121.913 17.931 120.824 17.2594 119.892 16.3862C119.003 15.5405 118.297 14.506 117.821 13.3521C117.316 12.1282 117.061 10.8074 117.074 9.47455ZM120.673 9.47455C120.66 10.3643 120.828 11.2469 121.167 12.0631C121.484 12.814 121.953 13.4844 122.541 14.0285C123.15 14.5843 123.857 15.0102 124.622 15.2819C125.46 15.5823 126.34 15.7318 127.225 15.724C128.111 15.7332 128.992 15.5849 129.831 15.2855C130.594 15.0145 131.298 14.5885 131.902 14.032C132.491 13.486 132.961 12.8147 133.281 12.0631C133.624 11.2482 133.795 10.3651 133.782 9.47455C133.796 8.58799 133.625 7.70884 133.281 6.89845C132.962 6.1584 132.494 5.49985 131.907 4.96859C131.3 4.42838 130.596 4.0193 129.836 3.76486C128.994 3.48099 128.114 3.3407 127.23 3.34942C126.345 3.34039 125.464 3.48068 124.622 3.76486C123.861 4.02047 123.155 4.42937 122.544 4.96859C121.956 5.49836 121.487 6.15734 121.171 6.89845C120.83 7.70987 120.66 8.58849 120.673 9.47455Z" fill="white"/>
<path d="M140.133 1.99766C140.133 1.09043 140.868 0.35498 141.776 0.35498H142.93C143.412 0.35498 143.872 0.550457 144.206 0.896575L150.047 6.94457L155.888 0.896575C156.222 0.550457 156.683 0.35498 157.164 0.35498H158.319C159.226 0.35498 159.961 1.09043 159.961 1.99766V16.6493C159.961 17.6297 159.167 18.4244 158.186 18.4244C157.206 18.4244 156.411 17.6297 156.411 16.6493V5.43028L151.298 10.5113C150.606 11.1987 149.489 11.1987 148.797 10.5113L143.683 5.43028V16.6493C143.683 17.6297 142.889 18.4244 141.908 18.4244C140.928 18.4244 140.133 17.6297 140.133 16.6493V1.99766Z" fill="white"/>
</g>
<defs>
<linearGradient id="paint0_linear_502_31072" x1="37.5204" y1="16.4115" x2="18.4741" y2="15.0683" gradientUnits="userSpaceOnUse">
<stop offset="0.116299" stop-color="#F7791D"/>
<stop offset="0.982766" stop-color="#FFE328"/>
</linearGradient>
<linearGradient id="paint1_linear_502_31072" x1="76.5052" y1="1.06445" x2="76.5052" y2="19.3233" gradientUnits="userSpaceOnUse">
<stop stop-color="#FFE53B"/>
<stop offset="0.114583" stop-color="#FF992A"/>
<stop offset="1" stop-color="#FF8125"/>
</linearGradient>
<clipPath id="clip0_502_31072">
<rect width="160" height="19.5122" fill="white"/>
</clipPath>
</defs>
</svg>
