<svg width="200" height="40" viewBox="0 0 200 40" fill="none" xmlns="http://www.w3.org/2000/svg">
<path d="M40.8352 13.0299C41.3195 13.0299 41.7121 13.1955 42.0132 13.5202C42.3143 13.8448 42.4649 14.2556 42.4649 14.7459V32.5616C42.4649 33.0915 42.2882 33.5355 41.9348 33.893C41.5813 34.2509 41.1427 34.4298 40.6193 34.4298C40.3574 34.4298 40.0891 34.3833 39.8208 34.2905C39.5525 34.1978 39.3434 34.0719 39.1994 33.9064L27.3412 18.6548L28.1265 18.1645V32.7138C28.1265 33.204 27.9695 33.6084 27.6619 33.9395C27.3477 34.2642 26.942 34.4298 26.4381 34.4298C25.9342 34.4298 25.5612 34.2642 25.2601 33.9395C24.9591 33.6149 24.8086 33.204 24.8086 32.7138V14.8982C24.8086 14.3682 24.9853 13.9243 25.3387 13.5665C25.679 13.2088 26.1174 13.0299 26.641 13.0299C26.9224 13.0299 27.2169 13.0829 27.5179 13.1955C27.8189 13.3082 28.0414 13.4738 28.1789 13.699L39.6836 28.5597L39.1731 28.9241V14.7392C39.1731 14.249 39.3238 13.8448 39.6245 13.5135C39.9256 13.1889 40.3314 13.0233 40.8352 13.0233V13.0299Z" fill="white"/>
<path d="M163.196 32.5681C163.085 32.071 162.81 31.6868 162.365 31.422C162.103 31.2828 161.926 31.0772 161.835 30.8123C161.743 30.5473 161.685 30.2227 161.652 29.8318C161.619 29.4475 161.567 28.997 161.488 28.4869C161.449 27.9369 161.325 27.4202 161.109 26.9431C160.899 26.4661 160.605 26.0156 160.232 25.5982C159.996 25.3332 159.715 25.088 159.394 24.8694C159.826 24.5911 160.225 24.2466 160.592 23.8424C161.122 23.2528 161.547 22.5903 161.861 21.8549C162.175 21.1194 162.332 20.3708 162.332 19.5956C162.332 18.3103 162.051 17.1774 161.488 16.1902C160.925 15.203 160.186 14.4278 159.27 13.8647C158.353 13.3015 157.372 13.0233 156.325 13.0233H147.628C147.104 13.0233 146.666 13.2021 146.312 13.5599C145.959 13.9177 145.782 14.3616 145.782 14.8916C145.782 15.8059 146.515 16.5413 147.412 16.5413H156.168C156.711 16.5413 157.221 16.8395 157.692 17.4424C158.164 18.0453 158.399 18.794 158.399 19.6884C158.399 20.384 158.288 21.0201 158.066 21.5965C157.843 22.1795 157.562 22.6367 157.221 22.9745C156.881 23.3124 156.528 23.4781 156.168 23.4781H147.189C146.41 23.4781 145.782 24.1141 145.782 24.9025V32.5547C145.782 33.085 146.005 33.5287 146.45 33.8865C146.895 34.2443 147.398 34.4233 147.961 34.4233C148.465 34.4233 148.858 34.2443 149.139 33.8865C149.421 33.5287 149.565 33.085 149.565 32.5547V26.6251H155.212C155.677 26.6251 156.076 26.6781 156.423 26.7908C156.763 26.9034 157.045 27.069 157.267 27.281C157.49 27.493 157.66 27.7514 157.778 28.0429C157.895 28.3411 157.961 28.6591 157.961 29.0036C157.961 30.0637 158.066 30.9316 158.275 31.6006C158.484 32.2698 158.766 32.8065 159.106 33.204C159.446 33.6015 159.793 33.8998 160.134 34.1051C160.356 34.2245 160.637 34.3237 160.978 34.3966C161.318 34.4695 161.658 34.4695 162.005 34.3966C162.345 34.3237 162.627 34.1581 162.849 33.893C163.19 33.5088 163.307 33.0648 163.196 32.5616V32.5681Z" fill="white"/>
<path d="M57.996 29.4939H49.8682C49.4952 29.4939 49.1549 29.7523 49.011 30.1432L47.8266 33.3234C47.5712 34.0059 46.9822 34.4564 46.3344 34.4564C45.1565 34.4564 44.3712 33.0648 44.8554 31.8326L51.5436 14.8121C51.969 13.7255 52.9179 13.0233 53.9583 13.0233C54.9987 13.0233 55.9411 13.7189 56.3733 14.8055L63.0808 31.826C63.5653 33.0583 62.78 34.4496 61.6021 34.4496H61.543C60.8952 34.4496 60.3127 34.0124 60.0511 33.3299L58.8468 30.1366C58.6964 29.7456 58.3626 29.4939 57.9895 29.4939H57.996ZM57.1127 25.4458L54.4689 18.4229C54.2658 17.8863 53.6048 17.8929 53.4021 18.4229L50.7779 25.4458C50.6143 25.8831 50.8958 26.3667 51.3081 26.3667H56.5825C57.0015 26.3667 57.2762 25.8764 57.1127 25.4392V25.4458Z" fill="white"/>
<path fill-rule="evenodd" clip-rule="evenodd" d="M131.088 34.7293C129.681 34.7293 128.411 34.5504 127.285 34.1925C126.16 33.8347 125.08 33.2121 124.053 32.311C123.791 32.0856 123.588 31.8341 123.451 31.5491C123.307 31.2642 123.241 30.9793 123.241 30.6944C123.241 30.224 123.405 29.8132 123.739 29.4554C124.072 29.0977 124.491 28.9188 124.989 28.9188C125.368 28.9188 125.715 29.038 126.016 29.2832C126.782 29.9126 127.541 30.3962 128.293 30.7209C129.046 31.0456 129.982 31.2112 131.088 31.2112C131.834 31.2112 132.515 31.0918 133.143 30.86C133.764 30.6281 134.268 30.3101 134.654 29.9126C135.034 29.5151 135.23 29.0645 135.23 28.5544C135.23 27.9449 135.047 27.4214 134.687 26.9974C134.327 26.5668 133.771 26.209 133.025 25.9109C132.279 25.6127 131.337 25.3875 130.185 25.2218C129.098 25.0562 128.143 24.8111 127.318 24.4732C126.494 24.1353 125.807 23.7112 125.25 23.1879C124.694 22.6711 124.282 22.0549 124 21.3526C123.719 20.6503 123.575 19.8619 123.575 18.9808C123.575 17.6557 123.909 16.5227 124.589 15.5886C125.263 14.6544 126.173 13.9389 127.318 13.4486C128.464 12.9583 129.733 12.7132 131.12 12.7132C132.429 12.7132 133.64 12.9119 134.759 13.3094C135.878 13.707 136.788 14.2105 137.488 14.82C138.07 15.2904 138.365 15.8271 138.365 16.4432C138.365 16.8938 138.195 17.2979 137.855 17.6689C137.514 18.0333 137.108 18.2188 136.644 18.2188C136.343 18.2188 136.068 18.1261 135.826 17.9406C135.505 17.6557 135.073 17.384 134.53 17.1323C133.987 16.8805 133.411 16.6619 132.809 16.4896C132.207 16.3174 131.644 16.2312 131.12 16.2312C130.257 16.2312 129.524 16.3439 128.935 16.5691C128.339 16.7944 127.894 17.0992 127.593 17.4834C127.292 17.8677 127.142 18.3182 127.142 18.8284C127.142 19.4379 127.318 19.9414 127.672 20.339C128.025 20.7365 128.529 21.0545 129.197 21.2864C129.864 21.5183 130.656 21.7303 131.579 21.9158C132.789 22.141 133.849 22.4061 134.766 22.7108C135.682 23.0156 136.441 23.4065 137.043 23.8901C137.645 24.3672 138.103 24.9701 138.404 25.6922C138.705 26.4144 138.856 27.2956 138.856 28.3358C138.856 29.6608 138.496 30.8004 137.769 31.7609C137.043 32.7218 136.094 33.4505 134.916 33.9606C133.738 34.4707 132.469 34.7225 131.094 34.7225L131.088 34.7293ZM67.1351 13.0299C67.4166 13.0299 67.7112 13.1094 68.0251 13.2618C68.3394 13.4141 68.5749 13.6129 68.732 13.858L75.3042 24.0967L82.0821 13.8514C82.4616 13.3015 82.959 13.0232 83.5611 13.0232C84.0454 13.0232 84.4772 13.1955 84.8567 13.54C85.2365 13.8845 85.4328 14.3351 85.4328 14.885V32.5879C85.4328 33.1178 85.2625 33.5618 84.9222 33.9197C84.582 34.2775 84.1238 34.4564 83.5611 34.4564C82.9982 34.4564 82.5403 34.2775 82.1869 33.9197C81.8334 33.5618 81.6567 33.1178 81.6567 32.5879V20.2879L76.6766 27.9767C76.4934 28.2019 76.2708 28.3941 75.996 28.5597C75.721 28.7254 75.4463 28.7916 75.1648 28.7717C74.9032 28.7916 74.6349 28.7187 74.3666 28.5597C74.0916 28.3941 73.8692 28.2019 73.6858 27.9767L68.7057 20.0046V32.5879C68.7057 33.1178 68.5421 33.5618 68.2215 33.9197C67.9008 34.2775 67.4754 34.4564 66.9519 34.4564C66.4285 34.4564 66.0359 34.2775 65.7152 33.9197C65.3945 33.5618 65.231 33.1178 65.231 32.5879V14.8916C65.231 14.3814 65.4141 13.9442 65.7872 13.5798C66.1602 13.2154 66.6052 13.0299 67.1287 13.0299H67.1351ZM139.939 33.7876C140.247 34.0992 140.699 34.258 141.281 34.258H141.674C142.256 34.258 142.701 34.1057 143.015 33.7876C143.323 33.4763 143.48 33.0192 143.48 32.4294V31.9129C143.48 31.3231 143.329 30.8725 143.015 30.5545C142.708 30.2365 142.256 30.0775 141.674 30.0775H141.281C140.699 30.0775 140.254 30.2365 139.939 30.5545C139.625 30.8659 139.468 31.3231 139.468 31.9129V32.4294C139.468 33.0192 139.625 33.4698 139.939 33.7876ZM122.588 32.5681C122.477 32.071 122.202 31.6868 121.757 31.422C121.495 31.2828 121.319 31.0772 121.227 30.8123C121.135 30.5473 121.076 30.2227 121.044 29.8318C121.011 29.4475 120.959 28.997 120.88 28.4868C120.841 27.9369 120.716 27.4201 120.5 26.9431C120.291 26.4661 119.997 26.0156 119.624 25.5982C119.388 25.3332 119.107 25.088 118.786 24.8694C119.218 24.5911 119.617 24.2466 119.983 23.8424C120.514 23.2528 120.939 22.5903 121.253 21.8548C121.567 21.1194 121.724 20.3708 121.724 19.5956C121.724 18.3103 121.443 17.1774 120.88 16.1902C120.317 15.203 119.578 14.4278 118.662 13.8647C117.746 13.3015 116.764 13.0232 115.717 13.0232H107.019C106.496 13.0232 106.058 13.2021 105.704 13.5599C105.351 13.9177 105.174 14.3616 105.174 14.8916C105.174 15.8059 105.907 16.5413 106.803 16.5413H115.56C116.103 16.5413 116.613 16.8395 117.085 17.4423C117.556 18.0453 117.791 18.7939 117.791 19.6884C117.791 20.384 117.68 21.02 117.457 21.5965C117.235 22.1795 116.953 22.6366 116.613 22.9745C116.273 23.3124 115.919 23.4781 115.56 23.4781H106.581C105.802 23.4781 105.174 24.1141 105.174 24.9025V32.5547C105.174 33.0849 105.397 33.5287 105.841 33.8865C106.286 34.2443 106.791 34.4232 107.353 34.4232C107.857 34.4232 108.25 34.2443 108.531 33.8865C108.813 33.5287 108.957 33.0849 108.957 32.5547V26.6251H114.604C115.069 26.6251 115.468 26.6781 115.815 26.7907C116.155 26.9034 116.436 27.069 116.659 27.281C116.881 27.493 117.052 27.7514 117.169 28.0429C117.287 28.3411 117.353 28.6591 117.353 29.0036C117.353 30.0636 117.458 30.9316 117.667 31.6006C117.876 32.2698 118.158 32.8065 118.498 33.204C118.838 33.6015 119.185 33.8998 119.525 34.1051C119.748 34.2245 120.029 34.3237 120.37 34.3966C120.71 34.4694 121.05 34.4694 121.397 34.3966C121.737 34.3237 122.019 34.1581 122.241 33.893C122.582 33.5088 122.699 33.0648 122.588 32.5615V32.5681ZM91.2034 29.4939H99.3247C99.6977 29.4939 100.032 29.7456 100.182 30.1365L101.386 33.3299C101.648 34.0124 102.23 34.4496 102.878 34.4496H102.937C104.115 34.4496 104.9 33.0583 104.416 31.826L97.7084 14.8055C97.2766 13.7189 96.3342 13.0232 95.2934 13.0232C94.253 13.0232 93.3042 13.7255 92.8787 14.8121L86.1905 31.8325C85.7063 33.0648 86.4916 34.4564 87.6695 34.4564C88.3173 34.4564 88.9063 34.0059 89.1617 33.3234L90.3461 30.1432C90.4901 29.7523 90.8303 29.4939 91.2034 29.4939ZM95.804 18.4229L98.4478 25.4458V25.4391C98.6114 25.8764 98.3366 26.3667 97.9176 26.3667H92.6432C92.231 26.3667 91.9495 25.8831 92.113 25.4458L94.7372 18.4229C94.9403 17.8929 95.6012 17.8863 95.804 18.4229Z" fill="url(#paint0_linear_673_10340)"/>
<path d="M167.799 32.3082C166.189 30.6653 165.384 28.3199 165.384 25.259V15.2679C165.384 14.2013 166.241 13.3333 167.295 13.3333H167.354C168.407 13.3333 169.265 14.2013 169.265 15.2679V25.1066C169.265 29.2541 171.032 31.3278 174.572 31.3278C178.112 31.3278 179.853 29.2541 179.853 25.1066V15.2679C179.853 14.2013 180.711 13.3333 181.764 13.3333C182.818 13.3333 183.675 14.2013 183.675 15.2679V25.259C183.675 28.3199 182.877 30.6719 181.273 32.3082C179.67 33.9448 177.432 34.7665 174.552 34.7665C171.673 34.7665 169.422 33.9448 167.812 32.3082H167.799Z" fill="white"/>
<path d="M189.326 36.681C194.087 36.681 197.947 32.7733 197.947 27.9529C197.947 23.1325 194.087 19.2248 189.326 19.2248C184.564 19.2248 180.704 23.1325 180.704 27.9529C180.704 32.7733 184.564 36.681 189.326 36.681Z" fill="url(#paint1_radial_673_10340)"/>
<path d="M30.0252 4.43654L29.7205 4.13065L29.2128 4.64044L29.5174 4.94634L30.0252 4.43654Z" fill="url(#paint2_linear_673_10340)"/>
<path d="M10.9718 18.4359C8.15597 21.2631 4.95027 21.1292 4.69894 21.1138C4.68356 20.8614 4.55021 17.6428 7.36607 14.8155C10.1819 11.9883 13.3825 12.1221 13.6389 12.1376C13.6543 12.3899 13.7877 15.6086 10.9718 18.4359Z" fill="url(#paint3_linear_673_10340)"/>
<path d="M19.0962 26.5934C16.2803 29.4207 13.0798 29.2868 12.8233 29.2713C12.808 29.019 12.6746 25.8003 15.4905 22.9731C18.3063 20.1458 21.5069 20.2797 21.7633 20.2952C21.7787 20.5475 21.9121 23.7662 19.0962 26.5934Z" fill="url(#paint4_linear_673_10340)"/>
<path d="M25.1693 17.6892C25.1693 17.6892 25.1898 17.6686 25.2001 17.6531C28.8674 13.6414 29.5855 7.87875 29.7239 5.49955C29.7547 4.94337 29.2213 4.40777 28.6673 4.43869C26.8055 4.54681 22.8561 5.01546 19.3119 7.00331C19.3119 7.00331 19.3016 7.0033 19.3016 7.00845C18.4861 7.46678 17.6962 8.00234 16.9525 8.6358C16.6807 8.86752 16.4139 9.10957 16.1575 9.3722C15.8036 9.72755 15.4804 10.0932 15.1829 10.4743C15.1214 10.5567 15.1163 10.5618 15.0753 10.6133C15.0753 10.6133 15.0753 10.6185 15.065 10.6236C15.0137 10.6906 14.9624 10.7575 14.9162 10.8245C14.865 10.8966 14.8137 10.9687 14.7624 11.0356C14.7162 11.0974 14.6701 11.1644 14.629 11.2313C14.6188 11.2467 14.6085 11.257 14.6034 11.2725C14.5572 11.3395 14.5162 11.4013 14.4751 11.4682C14.2854 11.7566 14.111 12.0553 13.9417 12.354C12.9364 14.1513 12.3261 16.0618 11.9055 17.7304C11.7208 18.4617 11.5772 19.1414 11.4541 19.744C11.4541 19.7697 11.4439 19.7955 11.4387 19.8161L14.4085 22.7978C14.4085 22.7978 14.4598 22.7875 14.4803 22.7824C15.0804 22.6588 15.7625 22.5146 16.4858 22.3292C18.1476 21.9069 20.0556 21.2889 21.8456 20.2796C22.3483 19.9963 22.8407 19.6873 23.3177 19.3371C23.369 19.3011 23.4203 19.2599 23.4664 19.2238C23.4921 19.2032 23.5177 19.1878 23.5434 19.1672C23.5536 19.1569 23.569 19.1466 23.5793 19.1363C23.6819 19.0539 23.7844 18.9767 23.8768 18.8942C23.9434 18.8376 24.005 18.7861 24.0666 18.7346C24.1537 18.6574 24.2409 18.5853 24.3281 18.5029C24.3897 18.4462 24.4512 18.3947 24.5025 18.3432C24.6051 18.2505 24.682 18.1733 24.7384 18.1218C24.7897 18.0703 24.8154 18.0445 24.8154 18.0445C24.9693 17.89 25.0924 17.7561 25.1693 17.6686V17.6892Z" fill="url(#paint5_linear_673_10340)"/>
<path d="M24.8103 18.0651C24.8103 18.0651 24.7846 18.0908 24.7333 18.1423C24.682 18.1938 24.6 18.2711 24.4974 18.3638C24.3384 18.5131 24.1179 18.7088 23.8716 18.9148C23.7742 18.9921 23.6767 19.0744 23.5741 19.1568C23.5639 19.1672 23.5485 19.1774 23.5382 19.1877C23.5126 19.2083 23.4869 19.2238 23.4613 19.2444C23.41 19.2804 23.3639 19.3216 23.3126 19.3577C22.8356 19.7079 22.3432 20.0169 21.8405 20.3001C20.0505 21.3095 18.1424 21.9275 16.4806 22.3497C15.7523 22.5351 15.0752 22.6793 14.4752 22.8029C14.4495 22.8029 14.4239 22.8132 14.4033 22.8184L11.4336 19.8366C11.4336 19.8366 11.4439 19.7903 11.449 19.7645C11.5721 19.1568 11.7208 18.4771 11.9003 17.7458C12.3209 16.0772 12.9364 14.1667 13.9366 12.3694C14.1007 12.0707 14.2802 11.772 14.47 11.4836C14.5111 11.4166 14.5572 11.3548 14.5982 11.2879C14.6085 11.2725 14.6136 11.2621 14.6239 11.2467C14.67 11.1797 14.7111 11.1179 14.7572 11.051C14.8085 10.9789 14.8598 10.9068 14.9111 10.8399C14.9624 10.7729 15.0086 10.706 15.0599 10.639C15.0599 10.639 15.0599 10.6339 15.0701 10.6287C15.1111 10.5772 15.1163 10.5721 15.1778 10.4897C15.4805 10.1086 15.8036 9.73779 16.1524 9.38762C16.4088 9.1301 16.6755 8.88294 16.9474 8.65118C17.6911 8.01776 18.481 7.48216 19.2965 7.02384C19.2965 7.02384 19.3016 7.02384 19.3068 7.01869C19.5119 6.91568 19.7325 6.80753 19.9633 6.6994C18.0707 9.4803 18.1527 10.7472 18.5425 11.3909C19.3273 12.6783 21.62 11.9059 23.4152 13.4302C24.7692 14.5786 25.1026 16.3965 25.1898 17.6737C25.1796 17.684 25.1693 17.6943 25.159 17.7097C25.0411 17.8333 24.918 17.9621 24.8051 18.0857L24.8103 18.0651Z" fill="url(#paint6_linear_673_10340)"/>
<path d="M30.4316 4.66525C30.9472 4.66525 31.365 4.24563 31.365 3.72798C31.365 3.21034 30.9472 2.79071 30.4316 2.79071C29.9161 2.79071 29.4982 3.21034 29.4982 3.72798C29.4982 4.24563 29.9161 4.66525 30.4316 4.66525Z" fill="url(#paint7_radial_673_10340)"/>
<path d="M23.5689 19.1517C23.5689 19.1517 23.5433 19.1724 23.533 19.1827C23.5074 19.2033 23.4817 19.2187 23.4561 19.2393C23.4048 19.2753 23.3586 19.3166 23.3073 19.3526C22.8303 19.7028 22.3379 20.0118 21.8353 20.295C20.0452 21.3044 18.1372 21.9224 16.4754 22.3446C15.7471 22.53 15.07 22.6743 14.4699 22.7979C14.4443 22.7979 14.4186 22.8082 14.3981 22.8133L11.4283 19.8315C11.4283 19.8315 11.4386 19.7852 11.4437 19.7594C11.5668 19.1518 11.7156 18.472 11.8951 17.7407C12.3157 16.0722 12.9312 14.1616 13.9313 12.3643C14.2647 11.7669 14.6392 11.1798 15.07 10.6236C13.6749 14.4088 14.0955 15.7374 14.6905 16.273C16.1676 17.6017 19.7631 14.9032 22.102 16.5768C23.0765 17.2721 23.4253 18.4308 23.5689 19.1569V19.1517Z" fill="url(#paint8_linear_673_10340)"/>
<path d="M13.6699 20.5524C12.6646 19.543 11.3926 19.1723 10.8437 19.7233C10.2949 20.2743 10.6591 21.5515 11.6644 22.566C12.6697 23.5805 13.9417 23.9462 14.4957 23.39C15.0496 22.8338 14.6803 21.5618 13.6699 20.5524ZM13.1672 21.0571C13.7981 21.6905 14.111 22.4424 13.993 22.9213C13.516 23.0398 12.7671 22.7256 12.1363 22.0922C11.5054 21.4588 11.1925 20.7121 11.3105 20.2331C11.7875 20.1147 12.5363 20.4288 13.1672 21.0571Z" fill="url(#paint9_linear_673_10340)"/>
<path d="M13.839 23.2099C13.4338 23.6168 12.4746 23.3181 11.7001 22.5405C10.9257 21.7628 10.6282 20.7998 11.0333 20.393C11.1103 20.3157 11.2077 20.2642 11.3206 20.2385C11.2026 20.7174 11.5155 21.4693 12.1464 22.0976C12.7772 22.7258 13.5261 23.0451 14.0031 22.9267C13.9774 23.04 13.9262 23.1378 13.8492 23.2151L13.839 23.2099Z" fill="#DB162E"/>
<path d="M13.9929 22.9212C13.5159 23.0396 12.7671 22.7255 12.1362 22.0921C11.5053 21.4587 11.1924 20.7119 11.3104 20.233C11.7874 20.1145 12.5363 20.4287 13.1671 21.057C13.798 21.6852 14.1109 22.4423 13.9929 22.9212Z" fill="#0F0323"/>
<path d="M13.9929 22.9212C13.5159 23.0396 12.7671 22.7255 12.1362 22.0921C11.5053 21.4587 11.1924 20.7119 11.3104 20.233C11.7874 20.1145 12.5363 20.4287 13.1671 21.057C13.798 21.6852 14.1109 22.4423 13.9929 22.9212Z" fill="url(#paint10_linear_673_10340)"/>
<path d="M11.9925 25.7021C11.0385 26.66 5.69401 30.476 4.74512 29.5181C3.79624 28.5603 7.59177 23.1941 8.5458 22.2414C9.49979 21.2887 11.0437 21.2836 11.9925 22.2414C12.9414 23.1993 12.9466 24.7494 11.9925 25.7021Z" fill="url(#paint11_linear_673_10340)"/>
<path d="M11.9925 24.4561C11.3821 25.069 7.15061 28.3237 6.54538 27.7108C5.94014 27.098 9.17659 22.8494 9.78697 22.2417C10.3973 21.634 11.3821 21.6289 11.9925 22.2417C12.6028 22.8546 12.6028 23.8433 11.9925 24.4561Z" fill="url(#paint12_linear_673_10340)"/>
<defs>
<linearGradient id="paint0_linear_673_10340" x1="142.566" y1="23.876" x2="65.231" y2="23.876" gradientUnits="userSpaceOnUse">
<stop stop-color="#FF8125"/>
<stop offset="0.81" stop-color="#FFA42D"/>
<stop offset="1" stop-color="#FFE53B"/>
</linearGradient>
<radialGradient id="paint1_radial_673_10340" cx="0" cy="0" r="1" gradientUnits="userSpaceOnUse" gradientTransform="translate(194.566 22.8187) rotate(129.888) scale(14.4978 14.4672)">
<stop stop-color="#FFDC39"/>
<stop offset="1" stop-color="#FF8727"/>
</radialGradient>
<linearGradient id="paint2_linear_673_10340" x1="29.463" y1="4.38919" x2="29.7689" y2="4.69385" gradientUnits="userSpaceOnUse">
<stop offset="0.27" stop-color="#FF8125"/>
<stop offset="1" stop-color="#FFE53B"/>
</linearGradient>
<linearGradient id="paint3_linear_673_10340" x1="5.3107" y1="15.2274" x2="11.0718" y2="17.2991" gradientUnits="userSpaceOnUse">
<stop stop-color="#FF8125"/>
<stop offset="0.11" stop-color="#FA7E24"/>
<stop offset="0.24" stop-color="#EC7724"/>
<stop offset="0.38" stop-color="#D56B24"/>
<stop offset="0.52" stop-color="#B55A24"/>
<stop offset="0.66" stop-color="#8C4424"/>
<stop offset="0.81" stop-color="#5A2A23"/>
<stop offset="0.96" stop-color="#1F0B23"/>
<stop offset="1" stop-color="#0F0323"/>
</linearGradient>
<linearGradient id="paint4_linear_673_10340" x1="18.7407" y1="29.7243" x2="16.647" y2="22.6462" gradientUnits="userSpaceOnUse">
<stop stop-color="#FF8125"/>
<stop offset="0.11" stop-color="#FA7E24"/>
<stop offset="0.24" stop-color="#EC7724"/>
<stop offset="0.38" stop-color="#D56B24"/>
<stop offset="0.52" stop-color="#B55A24"/>
<stop offset="0.66" stop-color="#8C4424"/>
<stop offset="0.81" stop-color="#5A2A23"/>
<stop offset="0.96" stop-color="#1F0B23"/>
<stop offset="1" stop-color="#0F0323"/>
</linearGradient>
<linearGradient id="paint5_linear_673_10340" x1="17.1115" y1="8.72334" x2="25.5338" y2="17.7119" gradientUnits="userSpaceOnUse">
<stop offset="0.27" stop-color="#FF8125"/>
<stop offset="1" stop-color="#FFE53B"/>
</linearGradient>
<linearGradient id="paint6_linear_673_10340" x1="14.8239" y1="23.5033" x2="22.6991" y2="9.50743" gradientUnits="userSpaceOnUse">
<stop stop-color="#F7931E" stop-opacity="0"/>
<stop offset="0.13" stop-color="#F7941D" stop-opacity="0.01"/>
<stop offset="0.24" stop-color="#F7991C" stop-opacity="0.06"/>
<stop offset="0.35" stop-color="#F8A01A" stop-opacity="0.13"/>
<stop offset="0.45" stop-color="#F8AB17" stop-opacity="0.23"/>
<stop offset="0.55" stop-color="#F9B913" stop-opacity="0.36"/>
<stop offset="0.65" stop-color="#FBCA0E" stop-opacity="0.52"/>
<stop offset="0.75" stop-color="#FCDF08" stop-opacity="0.71"/>
<stop offset="0.85" stop-color="#FEF602" stop-opacity="0.92"/>
<stop offset="0.88" stop-color="#FFFF00"/>
</linearGradient>
<radialGradient id="paint7_radial_673_10340" cx="0" cy="0" r="1" gradientUnits="userSpaceOnUse" gradientTransform="translate(30.324 2.97096) scale(1.7285 1.73549)">
<stop stop-color="#FFE53B"/>
<stop offset="1" stop-color="#FF8125"/>
</radialGradient>
<linearGradient id="paint8_linear_673_10340" x1="12.3619" y1="23.7712" x2="20.1094" y2="13.9499" gradientUnits="userSpaceOnUse">
<stop stop-color="#F7931E" stop-opacity="0"/>
<stop offset="0.13" stop-color="#F7941D" stop-opacity="0.01"/>
<stop offset="0.24" stop-color="#F7991C" stop-opacity="0.06"/>
<stop offset="0.35" stop-color="#F8A01A" stop-opacity="0.13"/>
<stop offset="0.45" stop-color="#F8AB17" stop-opacity="0.23"/>
<stop offset="0.55" stop-color="#F9B913" stop-opacity="0.36"/>
<stop offset="0.65" stop-color="#FBCA0E" stop-opacity="0.52"/>
<stop offset="0.75" stop-color="#FCDF08" stop-opacity="0.71"/>
<stop offset="0.85" stop-color="#FEF602" stop-opacity="0.92"/>
<stop offset="0.88" stop-color="#FFFF00"/>
</linearGradient>
<linearGradient id="paint9_linear_673_10340" x1="10.5104" y1="24.4045" x2="13.4076" y2="20.6152" gradientUnits="userSpaceOnUse">
<stop offset="0.27" stop-color="#FF8125"/>
<stop offset="0.58" stop-color="#FF8225"/>
<stop offset="0.7" stop-color="#FF8A26"/>
<stop offset="0.79" stop-color="#FF9629"/>
<stop offset="0.86" stop-color="#FFA72D"/>
<stop offset="0.92" stop-color="#FFBE32"/>
<stop offset="0.98" stop-color="#FFD938"/>
<stop offset="1" stop-color="#FFE53B"/>
</linearGradient>
<linearGradient id="paint10_linear_673_10340" x1="12.0929" y1="22.1533" x2="13.637" y2="20.5791" gradientUnits="userSpaceOnUse">
<stop offset="0.05" stop-color="#F7931E" stop-opacity="0"/>
<stop offset="0.14" stop-color="#F7941D" stop-opacity="0.02"/>
<stop offset="0.25" stop-color="#F79A1B" stop-opacity="0.07"/>
<stop offset="0.35" stop-color="#F8A419" stop-opacity="0.16"/>
<stop offset="0.47" stop-color="#F9B115" stop-opacity="0.28"/>
<stop offset="0.58" stop-color="#FAC210" stop-opacity="0.44"/>
<stop offset="0.7" stop-color="#FCD70A" stop-opacity="0.64"/>
<stop offset="0.81" stop-color="#FDF004" stop-opacity="0.86"/>
<stop offset="0.88" stop-color="#FFFF00"/>
</linearGradient>
<linearGradient id="paint11_linear_673_10340" x1="15.2444" y1="19.0073" x2="2.54016" y2="31.5836" gradientUnits="userSpaceOnUse">
<stop offset="0.37" stop-color="#FFE53B"/>
<stop offset="0.86" stop-color="#FFCC35" stop-opacity="0"/>
<stop offset="1" stop-color="#FF8125" stop-opacity="0"/>
</linearGradient>
<linearGradient id="paint12_linear_673_10340" x1="6.43135" y1="27.8234" x2="12.5126" y2="21.7667" gradientUnits="userSpaceOnUse">
<stop stop-color="#F7931E" stop-opacity="0.3"/>
<stop offset="0.11" stop-color="#F7951D" stop-opacity="0.32"/>
<stop offset="0.23" stop-color="#F79C1B" stop-opacity="0.36"/>
<stop offset="0.36" stop-color="#F8A718" stop-opacity="0.43"/>
<stop offset="0.49" stop-color="#F9B713" stop-opacity="0.54"/>
<stop offset="0.62" stop-color="#FBCC0D" stop-opacity="0.67"/>
<stop offset="0.76" stop-color="#FDE507" stop-opacity="0.84"/>
<stop offset="0.88" stop-color="#FFFF00"/>
</linearGradient>
</defs>
</svg>
