<svg width="200" height="40" viewBox="0 0 200 40" fill="none" xmlns="http://www.w3.org/2000/svg">
<path d="M36.3444 12.6708C36.7802 12.6708 37.1334 12.8181 37.4044 13.1066C37.6751 13.3952 37.8107 13.7603 37.8107 14.1961V30.0314C37.8107 30.5023 37.6517 30.8968 37.3337 31.2149C37.0157 31.5329 36.6212 31.6919 36.1499 31.6919C35.9144 31.6919 35.6729 31.6506 35.4316 31.5684C35.1901 31.4858 35.0017 31.3739 34.8721 31.2267L24.2014 17.6705L24.9081 17.2347V30.1667C24.9081 30.6025 24.7667 30.9618 24.49 31.2561C24.2073 31.5447 23.8422 31.6919 23.3887 31.6919C22.9353 31.6919 22.5996 31.5447 22.3288 31.2561C22.0579 30.9675 21.9224 30.6025 21.9224 30.1667V14.3315C21.9224 13.8604 22.0814 13.4658 22.3994 13.1478C22.7056 12.8298 23.1002 12.6708 23.5713 12.6708C23.8245 12.6708 24.0895 12.718 24.3604 12.8181C24.6313 12.9182 24.8315 13.0654 24.9552 13.2656L35.3078 26.4744L34.8484 26.7983V14.1902C34.8484 13.7544 34.984 13.3952 35.2547 13.1007C35.5257 12.8122 35.8908 12.6649 36.3444 12.6649V12.6708Z" fill="white"/>
<path d="M128.589 31.4605C128.065 31.4605 127.659 31.3194 127.382 31.0424C127.099 30.7598 126.958 30.3593 126.958 29.8352V29.3761C126.958 28.8517 127.099 28.4454 127.382 28.1686C127.665 27.8861 128.065 27.7447 128.589 27.7447H128.943C129.467 27.7447 129.873 27.8861 130.15 28.1686C130.432 28.4514 130.568 28.8517 130.568 29.3761V29.8352C130.568 30.3593 130.426 30.7656 130.15 31.0424C129.867 31.3252 129.467 31.4605 128.943 31.4605H128.589Z" fill="url(#paint0_linear_642_10501)"/>
<path d="M145.646 13.3115C146.117 13.5471 146.394 13.9181 146.476 14.4245C146.559 14.931 146.423 15.3962 146.082 15.8084C145.846 16.1323 145.54 16.3149 145.169 16.3502C144.798 16.3855 144.421 16.3149 144.044 16.1323C143.608 15.9321 143.155 15.779 142.672 15.673C142.189 15.567 141.689 15.5081 141.165 15.5081C140.187 15.5081 139.315 15.6612 138.544 15.9674C137.772 16.2736 137.119 16.7153 136.577 17.2865C136.035 17.8577 135.623 18.5291 135.34 19.3123C135.058 20.0896 134.922 20.9494 134.922 21.8916C134.922 22.9987 135.081 23.9586 135.399 24.7713C135.717 25.584 136.153 26.2671 136.718 26.8089C137.278 27.3506 137.943 27.7571 138.703 28.016C139.462 28.2812 140.287 28.4107 141.176 28.4107C141.665 28.4107 142.154 28.3634 142.643 28.2751C143.131 28.1868 143.602 28.022 144.056 27.7865C144.439 27.6039 144.81 27.5392 145.181 27.5981C145.552 27.6509 145.864 27.8454 146.117 28.1692C146.482 28.6226 146.612 29.0878 146.511 29.5708C146.412 30.0536 146.135 30.4011 145.681 30.619C145.21 30.8545 144.727 31.049 144.227 31.2019C143.726 31.3552 143.226 31.4729 142.719 31.5552C142.213 31.6377 141.694 31.679 141.17 31.679C139.869 31.679 138.632 31.4729 137.46 31.0547C136.294 30.6366 135.252 30.0242 134.333 29.2055C133.421 28.3928 132.696 27.3742 132.172 26.1493C131.648 24.9244 131.383 23.5111 131.383 21.8975C131.383 20.5018 131.624 19.2181 132.102 18.0403C132.579 16.8625 133.262 15.8437 134.139 14.984C135.016 14.1242 136.053 13.4528 137.248 12.9758C138.444 12.4988 139.745 12.2574 141.158 12.2574C141.954 12.2574 142.737 12.3458 143.497 12.5283C144.256 12.7108 144.974 12.97 145.64 13.3174L145.646 13.3115Z" fill="white"/>
<path d="M165.798 22.0388C165.798 23.3992 165.568 24.6653 165.12 25.8431C164.667 27.0209 164.031 28.0572 163.206 28.9524C162.382 29.8476 161.404 30.5483 160.274 31.0605C159.143 31.567 157.906 31.8204 156.564 31.8204C155.221 31.8204 153.99 31.567 152.871 31.0605C151.747 30.5541 150.775 29.8534 149.95 28.9524C149.126 28.0572 148.49 27.0209 148.037 25.8431C147.583 24.6653 147.359 23.3992 147.359 22.0388C147.359 20.6785 147.583 19.4124 148.037 18.2346C148.49 17.0568 149.126 16.0204 149.95 15.1253C150.775 14.2302 151.747 13.5294 152.871 13.0171C153.996 12.5106 155.227 12.2574 156.564 12.2574C157.9 12.2574 159.137 12.5106 160.274 13.0171C161.404 13.5235 162.382 14.2243 163.206 15.1253C164.031 16.0204 164.667 17.0568 165.12 18.2346C165.574 19.4124 165.798 20.6785 165.798 22.0388ZM162.264 22.0388C162.264 20.8258 162.017 19.7245 161.528 18.7352C161.039 17.7459 160.368 16.9626 159.52 16.3855C158.666 15.8084 157.683 15.5139 156.558 15.5139C155.433 15.5139 154.45 15.8025 153.596 16.3855C152.742 16.9626 152.076 17.7459 151.599 18.7234C151.116 19.701 150.881 20.8081 150.881 22.0388C150.881 23.2696 151.122 24.3532 151.599 25.3425C152.076 26.3319 152.742 27.1151 153.596 27.6922C154.45 28.2693 155.433 28.5637 156.558 28.5637C157.683 28.5637 158.666 28.2751 159.52 27.6922C160.374 27.1151 161.039 26.3319 161.528 25.3425C162.017 24.3532 162.264 23.2579 162.264 22.0388Z" fill="white"/>
<path d="M168.332 12.6649C168.585 12.6649 168.85 12.7356 169.133 12.8711C169.416 13.0065 169.628 13.1832 169.769 13.4011L176.371 23.5594L175.01 23.5064L181.776 13.4011C182.118 12.9123 182.566 12.6649 183.107 12.6649C183.543 12.6649 183.932 12.8181 184.273 13.1243C184.615 13.4305 184.791 13.8309 184.791 14.3197V30.049C184.791 30.5199 184.639 30.9147 184.332 31.2327C184.026 31.5508 183.614 31.7095 183.107 31.7095C182.601 31.7095 182.189 31.5508 181.871 31.2327C181.553 30.9147 181.394 30.5199 181.394 30.049V17.2524L182.454 17.4997L176.912 25.9503C176.747 26.1505 176.547 26.3213 176.3 26.4685C176.053 26.6157 175.805 26.6746 175.552 26.6569C175.316 26.6746 175.075 26.6098 174.834 26.4685C174.586 26.3213 174.386 26.1505 174.221 25.9503L169.033 17.7471L169.739 16.3043V30.049C169.739 30.5199 169.592 30.9147 169.304 31.2327C169.015 31.5508 168.632 31.7095 168.162 31.7095C167.69 31.7095 167.337 31.5508 167.048 31.2327C166.76 30.9147 166.613 30.5199 166.613 30.049V14.3197C166.613 13.8663 166.777 13.4776 167.113 13.1537C167.449 12.8298 167.849 12.6649 168.32 12.6649H168.332Z" fill="white"/>
<path d="M50.8666 27.3047H43.5527C43.2171 27.3047 42.9109 27.5345 42.7813 27.882L41.7153 30.7084C41.4858 31.315 40.9557 31.7155 40.3728 31.7155C39.3128 31.7155 38.6061 30.479 39.0418 29.3835L45.0602 14.255C45.4429 13.2892 46.2968 12.6649 47.2333 12.6649C48.1695 12.6649 49.0176 13.2833 49.4063 14.2491L55.4424 29.3777C55.8781 30.4729 55.1714 31.7095 54.1114 31.7095H54.0586C53.4754 31.7095 52.9513 31.321 52.7158 30.7144L51.6322 27.8759C51.4968 27.5285 51.1964 27.3047 50.8608 27.3047H50.8666ZM50.0718 23.7066L47.6927 17.4644C47.51 16.9874 46.9153 16.9933 46.7326 17.4644L44.3714 23.7066C44.2239 24.0953 44.4773 24.5252 44.8481 24.5252H49.5948C49.9717 24.5252 50.219 24.0894 50.0718 23.7007V23.7066Z" fill="white"/>
<path fill-rule="evenodd" clip-rule="evenodd" d="M115.731 31.3491C116.744 31.6671 117.887 31.8261 119.153 31.8261L119.158 31.8204C120.395 31.8204 121.538 31.5964 122.598 31.1431C123.658 30.6897 124.512 30.0418 125.165 29.1879C125.819 28.334 126.143 27.3212 126.143 26.1434C126.143 25.2188 126.007 24.4356 125.736 23.7937C125.465 23.1519 125.053 22.616 124.512 22.192C123.97 21.7621 123.287 21.4146 122.462 21.1437C121.638 20.8728 120.684 20.6373 119.594 20.4371C118.764 20.2722 118.051 20.0837 117.451 19.8776C116.85 19.6715 116.397 19.3889 116.079 19.0355C115.761 18.6822 115.602 18.2346 115.602 17.6928C115.602 17.2394 115.737 16.839 116.008 16.4974C116.279 16.1558 116.679 15.885 117.215 15.6847C117.745 15.4845 118.405 15.3844 119.182 15.3844C119.653 15.3844 120.16 15.461 120.702 15.6141C121.243 15.7672 121.761 15.9615 122.25 16.1853C122.739 16.4091 123.128 16.6505 123.416 16.9037C123.634 17.0686 123.881 17.1511 124.152 17.1511C124.571 17.1511 124.936 16.9862 125.242 16.6623C125.548 16.3325 125.701 15.9733 125.701 15.5728C125.701 15.0252 125.436 14.5482 124.912 14.1301C124.282 13.5883 123.463 13.1407 122.456 12.7874C121.449 12.4341 120.36 12.2574 119.182 12.2574C117.934 12.2574 116.791 12.4753 115.761 12.9111C114.73 13.3469 113.912 13.9829 113.305 14.8132C112.693 15.6435 112.392 16.6505 112.392 17.8283C112.392 18.6115 112.522 19.3123 112.775 19.9365C113.028 20.5607 113.399 21.1084 113.9 21.5677C114.4 22.033 115.019 22.4099 115.761 22.7102C116.503 23.0105 117.363 23.2284 118.34 23.3756C119.377 23.5229 120.224 23.7231 120.896 23.9881C121.567 24.2531 122.068 24.5711 122.391 24.9538C122.716 25.3307 122.88 25.796 122.88 26.3377C122.88 26.7912 122.704 27.1916 122.362 27.545C122.015 27.8982 121.561 28.181 121.002 28.3871C120.437 28.5931 119.824 28.6993 119.153 28.6993C118.157 28.6993 117.315 28.5519 116.638 28.2633C115.961 27.975 115.278 27.545 114.589 26.9855C114.318 26.7676 114.006 26.6616 113.664 26.6616C113.217 26.6616 112.84 26.8206 112.539 27.1386C112.239 27.4566 112.092 27.8217 112.092 28.2399C112.092 28.493 112.151 28.7464 112.28 28.9995C112.404 29.2528 112.587 29.4765 112.822 29.6768C113.747 30.4776 114.718 31.0311 115.731 31.3491ZM59.1678 12.877C58.885 12.7415 58.6201 12.6709 58.367 12.6709H58.3609C57.89 12.6709 57.4894 12.8357 57.1538 13.1596C56.8182 13.4835 56.6531 13.8722 56.6531 14.3256V30.0547C56.6531 30.526 56.8003 30.9205 57.0889 31.2385C57.3774 31.5565 57.7309 31.7155 58.2019 31.7155C58.6732 31.7155 59.0558 31.5565 59.3444 31.2385C59.633 30.9205 59.7802 30.526 59.7802 30.0547V18.8703L64.2616 25.9562C64.4264 26.1564 64.6267 26.3272 64.874 26.4744C65.1155 26.6157 65.3571 26.6805 65.5926 26.6629C65.8457 26.6805 66.093 26.6216 66.3403 26.4744C66.5876 26.3272 66.7879 26.1564 66.9529 25.9562L71.4344 19.1221V30.0547C71.4344 30.526 71.5934 30.9205 71.9114 31.2385C72.2292 31.5565 72.6415 31.7155 73.148 31.7155C73.6545 31.7155 74.0666 31.5565 74.3728 31.2385C74.6789 30.9205 74.8322 30.526 74.8322 30.0547V14.3198C74.8322 13.831 74.6556 13.4305 74.3139 13.1243C73.9725 12.8181 73.5838 12.665 73.148 12.665C72.606 12.665 72.1587 12.9123 71.817 13.4011L65.7177 22.5075L59.8038 13.407C59.6624 13.1891 59.4503 13.0124 59.1678 12.877ZM110.425 30.0371C110.325 29.5956 110.078 29.2539 109.677 29.0184C109.442 28.8946 109.283 28.7122 109.2 28.4768C109.118 28.241 109.065 27.9524 109.035 27.605C109.006 27.2635 108.959 26.8631 108.888 26.4096C108.853 25.9209 108.741 25.4615 108.547 25.0375C108.358 24.6135 108.093 24.2131 107.757 23.8421C107.546 23.6065 107.292 23.3886 107.004 23.1943C107.392 22.947 107.752 22.6407 108.081 22.2815C108.558 21.7574 108.941 21.1685 109.224 20.5149C109.506 19.8612 109.648 19.1957 109.648 18.5067C109.648 17.3643 109.394 16.3573 108.888 15.4799C108.382 14.6024 107.716 13.9134 106.892 13.4128C106.067 12.9123 105.184 12.665 104.242 12.665H96.4154C95.9444 12.665 95.5496 12.824 95.2319 13.142C94.9139 13.46 94.7549 13.8545 94.7549 14.3256C94.7549 15.1383 95.4143 15.792 96.2212 15.792H104.1C104.589 15.792 105.049 16.057 105.473 16.5928C105.897 17.1288 106.109 17.7942 106.109 18.5892C106.109 19.2075 106.009 19.7729 105.808 20.2852C105.608 20.8034 105.355 21.2097 105.049 21.5101C104.742 21.8104 104.424 21.9576 104.1 21.9576H96.0209C95.3202 21.9576 94.7549 22.523 94.7549 23.2237V30.0253C94.7549 30.4966 94.9549 30.8911 95.3554 31.2091C95.756 31.5271 96.2094 31.6861 96.7158 31.6861C97.1692 31.6861 97.5227 31.5271 97.7758 31.2091C98.0289 30.8911 98.1585 30.4966 98.1585 30.0253V24.7549H103.241C103.659 24.7549 104.018 24.802 104.33 24.9021C104.636 25.0022 104.89 25.1494 105.09 25.3379C105.29 25.5263 105.443 25.756 105.549 26.0151C105.655 26.2801 105.714 26.5628 105.714 26.869C105.714 27.8113 105.808 28.5827 105.997 29.1774C106.185 29.7722 106.438 30.2492 106.745 30.6025C107.051 30.956 107.363 31.2209 107.669 31.4033C107.869 31.5095 108.123 31.5978 108.429 31.6625C108.735 31.7274 109.041 31.7274 109.353 31.6625C109.66 31.5978 109.913 31.4506 110.113 31.2149C110.419 30.8735 110.525 30.479 110.425 30.0314V30.0371ZM81.104 27.3047H88.4121C88.748 27.3047 89.0481 27.5285 89.1838 27.8759L90.2671 30.7144C90.5029 31.3211 91.027 31.7098 91.6099 31.7098H91.663C92.723 31.7098 93.4294 30.4729 92.9937 29.3777L86.9576 14.2491C86.5689 13.2833 85.721 12.665 84.7846 12.665C83.8484 12.665 82.9945 13.2892 82.6115 14.255L76.5931 29.3835C76.1573 30.479 76.8641 31.7155 77.9241 31.7155C78.507 31.7155 79.0371 31.315 79.2668 30.7084L80.3326 27.882C80.4622 27.5345 80.7684 27.3047 81.104 27.3047ZM85.244 17.4644L87.6231 23.7066V23.7007C87.7703 24.0894 87.523 24.5252 87.1461 24.5252H82.3997C82.0286 24.5252 81.7755 24.0953 81.9227 23.7066L84.2842 17.4644C84.4666 16.9933 85.0613 16.9874 85.244 17.4644Z" fill="url(#paint1_linear_642_10501)"/>
<path d="M190.382 35.4883C194.658 35.4883 198.125 32.0214 198.125 27.7447C198.125 23.468 194.658 20.0011 190.382 20.0011C186.105 20.0011 182.638 23.468 182.638 27.7447C182.638 32.0214 186.105 35.4883 190.382 35.4883Z" fill="url(#paint2_radial_642_10501)"/>
<path d="M26.969 3.93612L26.6954 3.66473L26.2393 4.11703L26.513 4.38842L26.969 3.93612Z" fill="url(#paint3_linear_642_10501)"/>
<path d="M9.85504 16.3564C7.3258 18.8648 4.44641 18.746 4.22066 18.7323C4.20685 18.5084 4.08707 15.6528 6.61631 13.1444C9.14555 10.6361 12.0203 10.7548 12.2507 10.7685C12.2645 10.9924 12.3843 13.8481 9.85504 16.3564Z" fill="url(#paint4_linear_642_10501)"/>
<path d="M17.1525 23.5939C14.6233 26.1022 11.7485 25.9834 11.5182 25.9697C11.5043 25.7459 11.3846 22.8902 13.9138 20.3819C16.4431 17.8735 19.3178 17.9923 19.5482 18.006C19.562 18.2299 19.6818 21.0855 17.1525 23.5939Z" fill="url(#paint5_linear_642_10501)"/>
<path d="M22.6073 15.694C22.6073 15.694 22.6258 15.6757 22.635 15.662C25.929 12.1028 26.574 6.99007 26.6984 4.87923C26.726 4.38578 26.2469 3.91059 25.7493 3.93802C24.077 4.03395 20.5296 4.44974 17.3462 6.21337C17.3462 6.21337 17.3369 6.21337 17.3369 6.21794C16.6044 6.62457 15.8949 7.09973 15.2269 7.66174C14.9827 7.86732 14.7432 8.08207 14.5128 8.31508C14.195 8.63035 13.9047 8.95475 13.6375 9.29285C13.5822 9.36595 13.5776 9.37051 13.5408 9.41621C13.5408 9.41621 13.5408 9.42077 13.5315 9.42534C13.4855 9.48474 13.4394 9.54413 13.3979 9.60352C13.3519 9.66751 13.3058 9.73148 13.2597 9.79087C13.2183 9.8457 13.1768 9.90509 13.1399 9.96449C13.1307 9.97819 13.1215 9.98732 13.1169 10.001C13.0755 10.0604 13.0386 10.1153 13.0017 10.1747C12.8313 10.4305 12.6746 10.6955 12.5226 10.9605C11.6196 12.5551 11.0714 14.2502 10.6936 15.7305C10.5278 16.3793 10.3988 16.9824 10.2882 17.517C10.2882 17.5398 10.279 17.5627 10.2744 17.581L12.9418 20.2264C12.9418 20.2264 12.9879 20.2173 13.0064 20.2127C13.5454 20.103 14.1581 19.9751 14.8077 19.8106C16.3004 19.436 18.0142 18.8877 19.622 17.9922C20.0735 17.7409 20.5158 17.4667 20.9442 17.156C20.9903 17.1241 21.0364 17.0875 21.0778 17.0555C21.1008 17.0373 21.1239 17.0236 21.1469 17.0053C21.1561 16.9961 21.17 16.987 21.1792 16.9779C21.2713 16.9048 21.3635 16.8362 21.4464 16.7631C21.5063 16.7129 21.5616 16.6672 21.6169 16.6215C21.6952 16.5529 21.7735 16.489 21.8518 16.4159C21.9071 16.3656 21.9624 16.3199 22.0084 16.2742C22.1006 16.192 22.1697 16.1235 22.2204 16.0778C22.2664 16.0321 22.2895 16.0092 22.2895 16.0092C22.4277 15.8722 22.5382 15.7534 22.6073 15.6757V15.694Z" fill="url(#paint6_linear_642_10501)"/>
<path d="M22.2849 16.0274C22.2849 16.0274 22.2619 16.0503 22.2158 16.096C22.1697 16.1417 22.096 16.2102 22.0039 16.2924C21.8611 16.4249 21.663 16.5986 21.4418 16.7813C21.3543 16.8499 21.2668 16.923 21.1746 16.996C21.1654 17.0052 21.1516 17.0143 21.1424 17.0235C21.1193 17.0417 21.0963 17.0555 21.0733 17.0737C21.0272 17.1057 20.9857 17.1423 20.9397 17.1743C20.5112 17.4849 20.0689 17.7591 19.6174 18.0104C18.0096 18.9059 16.2958 19.4542 14.8031 19.8288C14.1489 19.9933 13.5408 20.1212 13.0018 20.2309C12.9787 20.2309 12.9557 20.24 12.9373 20.2446L10.2698 17.5992C10.2698 17.5992 10.279 17.5581 10.2836 17.5352C10.3942 16.996 10.5278 16.393 10.6891 15.7442C11.0668 14.2638 11.6197 12.5687 12.518 10.9742C12.6655 10.7091 12.8267 10.4442 12.9972 10.1883C13.034 10.1289 13.0755 10.0741 13.1124 10.0147C13.1216 10.001 13.1262 9.99181 13.1354 9.97811C13.1768 9.91872 13.2137 9.86389 13.2552 9.8045C13.3012 9.74053 13.3473 9.67657 13.3934 9.61718C13.4394 9.55778 13.4809 9.49839 13.527 9.43899C13.527 9.43899 13.527 9.4344 13.5362 9.42983C13.573 9.38417 13.5777 9.37957 13.6329 9.30648C13.9048 8.96838 14.195 8.63941 14.5083 8.32873C14.7386 8.10026 14.9782 7.88097 15.2224 7.67536C15.8904 7.11338 16.5999 6.6382 17.3324 6.23157C17.3324 6.23157 17.337 6.23157 17.3416 6.227C17.5259 6.13561 17.724 6.03965 17.9313 5.94373C16.2313 8.41096 16.305 9.53492 16.6551 10.1061C17.36 11.2483 19.4193 10.563 21.0318 11.9154C22.2481 12.9342 22.5475 14.5471 22.6258 15.6802C22.6166 15.6893 22.6074 15.6985 22.5982 15.7122C22.4922 15.8218 22.3816 15.936 22.2803 16.0457L22.2849 16.0274Z" fill="url(#paint7_linear_642_10501)"/>
<path d="M27.3341 4.13903C27.7972 4.13903 28.1725 3.76673 28.1725 3.30748C28.1725 2.84822 27.7972 2.47592 27.3341 2.47592C26.8711 2.47592 26.4957 2.84822 26.4957 3.30748C26.4957 3.76673 26.8711 4.13903 27.3341 4.13903Z" fill="url(#paint8_radial_642_10501)"/>
<path d="M21.1699 16.9916C21.1699 16.9916 21.1469 17.0099 21.1377 17.019C21.1146 17.0373 21.0916 17.051 21.0686 17.0693C21.0225 17.1012 20.981 17.1378 20.935 17.1698C20.5065 17.4805 20.0642 17.7546 19.6127 18.0059C18.0049 18.9014 16.2911 19.4497 14.7984 19.8243C14.1442 19.9888 13.5361 20.1168 12.9971 20.2264C12.9741 20.2264 12.951 20.2356 12.9326 20.2401L10.2651 17.5947C10.2651 17.5947 10.2743 17.5536 10.279 17.5307C10.3895 16.9916 10.5231 16.3885 10.6844 15.7397C11.0621 14.2593 11.615 12.5643 12.5133 10.9697C12.8128 10.4397 13.1491 9.91881 13.5361 9.42535C12.283 12.7836 12.6608 13.9624 13.1952 14.4375C14.522 15.6163 17.7515 13.2222 19.8523 14.7071C20.7276 15.3239 21.0409 16.3519 21.1699 16.9961V16.9916Z" fill="url(#paint9_linear_642_10501)"/>
<path d="M12.2784 18.2342C11.3755 17.3387 10.2329 17.0098 9.73997 17.4986C9.24701 17.9875 9.57411 19.1206 10.4771 20.0207C11.3801 20.9208 12.5226 21.2452 13.0202 20.7518C13.5177 20.2583 13.186 19.1298 12.2784 18.2342ZM11.8269 18.682C12.3936 19.244 12.6746 19.9111 12.5687 20.336C12.1402 20.4411 11.4676 20.1624 10.9009 19.6004C10.3343 19.0384 10.0532 18.3759 10.1592 17.951C10.5876 17.8459 11.2603 18.1246 11.8269 18.682Z" fill="url(#paint10_linear_642_10501)"/>
<path d="M12.4304 20.592C12.0664 20.9529 11.2049 20.688 10.5092 19.998C9.81358 19.3081 9.54638 18.4537 9.91031 18.0928C9.97942 18.0242 10.067 17.9785 10.1683 17.9557C10.0624 18.3806 10.3434 19.0477 10.91 19.6051C11.4767 20.1625 12.1493 20.4458 12.5778 20.3407C12.5547 20.4412 12.5087 20.528 12.4396 20.5966L12.4304 20.592Z" fill="#DB162E"/>
<path d="M12.5687 20.3359C12.1402 20.4409 11.4676 20.1622 10.9009 19.6003C10.3343 19.0383 10.0532 18.3758 10.1592 17.9508C10.5876 17.8458 11.2603 18.1245 11.8269 18.6819C12.3936 19.2393 12.6746 19.911 12.5687 20.3359Z" fill="#0F0323"/>
<path d="M12.5687 20.3359C12.1402 20.4409 11.4676 20.1622 10.9009 19.6003C10.3343 19.0383 10.0532 18.3758 10.1592 17.9508C10.5876 17.8458 11.2603 18.1245 11.8269 18.6819C12.3936 19.2393 12.6746 19.911 12.5687 20.3359Z" fill="url(#paint11_linear_642_10501)"/>
<path d="M10.7719 22.8031C9.91499 23.6529 5.11447 27.0385 4.26217 26.1887C3.40987 25.3389 6.81906 20.578 7.67598 19.7328C8.53287 18.8875 9.91958 18.8829 10.7719 19.7328C11.6242 20.5826 11.6288 21.9579 10.7719 22.8031Z" fill="url(#paint12_linear_642_10501)"/>
<path d="M10.7719 21.6977C10.2236 22.2414 6.42286 25.129 5.87923 24.5853C5.3356 24.0415 8.24261 20.2721 8.79087 19.733C9.33909 19.1939 10.2236 19.1893 10.7719 19.733C11.3201 20.2767 11.3201 21.1539 10.7719 21.6977Z" fill="url(#paint13_linear_642_10501)"/>
<defs>
<linearGradient id="paint0_linear_642_10501" x1="139.166" y1="29.5997" x2="57.0745" y2="29.5997" gradientUnits="userSpaceOnUse">
<stop stop-color="#FF8125"/>
<stop offset="0.81" stop-color="#FFA42D"/>
<stop offset="1" stop-color="#FFE53B"/>
</linearGradient>
<linearGradient id="paint1_linear_642_10501" x1="126.191" y1="23.2615" x2="56.7018" y2="23.2615" gradientUnits="userSpaceOnUse">
<stop stop-color="#FF8125"/>
<stop offset="0.81" stop-color="#FFA42D"/>
<stop offset="1" stop-color="#FFE53B"/>
</linearGradient>
<radialGradient id="paint2_radial_642_10501" cx="0" cy="0" r="1" gradientUnits="userSpaceOnUse" gradientTransform="translate(195.089 23.1895) rotate(130.236) scale(12.9284)">
<stop stop-color="#FFDC39"/>
<stop offset="1" stop-color="#FF8727"/>
</radialGradient>
<linearGradient id="paint3_linear_642_10501" x1="26.4641" y1="3.89411" x2="26.7355" y2="4.16776" gradientUnits="userSpaceOnUse">
<stop offset="0.27" stop-color="#FF8125"/>
<stop offset="1" stop-color="#FFE53B"/>
</linearGradient>
<linearGradient id="paint4_linear_642_10501" x1="4.77015" y1="13.5098" x2="9.93009" y2="15.3884" gradientUnits="userSpaceOnUse">
<stop stop-color="#FF8125"/>
<stop offset="0.11" stop-color="#FA7E24"/>
<stop offset="0.24" stop-color="#EC7724"/>
<stop offset="0.38" stop-color="#D56B24"/>
<stop offset="0.52" stop-color="#B55A24"/>
<stop offset="0.66" stop-color="#8C4424"/>
<stop offset="0.81" stop-color="#5A2A23"/>
<stop offset="0.96" stop-color="#1F0B23"/>
<stop offset="1" stop-color="#0F0323"/>
</linearGradient>
<linearGradient id="paint5_linear_642_10501" x1="16.8332" y1="26.3716" x2="14.9949" y2="20.0796" gradientUnits="userSpaceOnUse">
<stop stop-color="#FF8125"/>
<stop offset="0.11" stop-color="#FA7E24"/>
<stop offset="0.24" stop-color="#EC7724"/>
<stop offset="0.38" stop-color="#D56B24"/>
<stop offset="0.52" stop-color="#B55A24"/>
<stop offset="0.66" stop-color="#8C4424"/>
<stop offset="0.81" stop-color="#5A2A23"/>
<stop offset="0.96" stop-color="#1F0B23"/>
<stop offset="1" stop-color="#0F0323"/>
</linearGradient>
<linearGradient id="paint6_linear_642_10501" x1="15.3697" y1="7.7394" x2="22.8355" y2="15.806" gradientUnits="userSpaceOnUse">
<stop offset="0.27" stop-color="#FF8125"/>
<stop offset="1" stop-color="#FFE53B"/>
</linearGradient>
<linearGradient id="paint7_linear_642_10501" x1="13.315" y1="20.8523" x2="20.257" y2="8.36188" gradientUnits="userSpaceOnUse">
<stop stop-color="#F7931E" stop-opacity="0"/>
<stop offset="0.13" stop-color="#F7941D" stop-opacity="0.01"/>
<stop offset="0.24" stop-color="#F7991C" stop-opacity="0.06"/>
<stop offset="0.35" stop-color="#F8A01A" stop-opacity="0.13"/>
<stop offset="0.45" stop-color="#F8AB17" stop-opacity="0.23"/>
<stop offset="0.55" stop-color="#F9B913" stop-opacity="0.36"/>
<stop offset="0.65" stop-color="#FBCA0E" stop-opacity="0.52"/>
<stop offset="0.75" stop-color="#FCDF08" stop-opacity="0.71"/>
<stop offset="0.85" stop-color="#FEF602" stop-opacity="0.92"/>
<stop offset="0.88" stop-color="#FFFF00"/>
</linearGradient>
<radialGradient id="paint8_radial_642_10501" cx="0" cy="0" r="1" gradientUnits="userSpaceOnUse" gradientTransform="translate(27.2374 2.63584) scale(1.55256 1.53974)">
<stop stop-color="#FFE53B"/>
<stop offset="1" stop-color="#FF8125"/>
</radialGradient>
<linearGradient id="paint9_linear_642_10501" x1="11.1036" y1="21.0899" x2="17.9571" y2="12.2943" gradientUnits="userSpaceOnUse">
<stop stop-color="#F7931E" stop-opacity="0"/>
<stop offset="0.13" stop-color="#F7941D" stop-opacity="0.01"/>
<stop offset="0.24" stop-color="#F7991C" stop-opacity="0.06"/>
<stop offset="0.35" stop-color="#F8A01A" stop-opacity="0.13"/>
<stop offset="0.45" stop-color="#F8AB17" stop-opacity="0.23"/>
<stop offset="0.55" stop-color="#F9B913" stop-opacity="0.36"/>
<stop offset="0.65" stop-color="#FBCA0E" stop-opacity="0.52"/>
<stop offset="0.75" stop-color="#FCDF08" stop-opacity="0.71"/>
<stop offset="0.85" stop-color="#FEF602" stop-opacity="0.92"/>
<stop offset="0.88" stop-color="#FFFF00"/>
</linearGradient>
<linearGradient id="paint10_linear_642_10501" x1="9.44052" y1="21.6519" x2="12.0025" y2="18.2595" gradientUnits="userSpaceOnUse">
<stop offset="0.27" stop-color="#FF8125"/>
<stop offset="0.58" stop-color="#FF8225"/>
<stop offset="0.7" stop-color="#FF8A26"/>
<stop offset="0.79" stop-color="#FF9629"/>
<stop offset="0.86" stop-color="#FFA72D"/>
<stop offset="0.92" stop-color="#FFBE32"/>
<stop offset="0.98" stop-color="#FFD938"/>
<stop offset="1" stop-color="#FFE53B"/>
</linearGradient>
<linearGradient id="paint11_linear_642_10501" x1="10.8621" y1="19.6546" x2="12.2316" y2="18.2411" gradientUnits="userSpaceOnUse">
<stop offset="0.05" stop-color="#F7931E" stop-opacity="0"/>
<stop offset="0.14" stop-color="#F7941D" stop-opacity="0.02"/>
<stop offset="0.25" stop-color="#F79A1B" stop-opacity="0.07"/>
<stop offset="0.35" stop-color="#F8A419" stop-opacity="0.16"/>
<stop offset="0.47" stop-color="#F9B115" stop-opacity="0.28"/>
<stop offset="0.58" stop-color="#FAC210" stop-opacity="0.44"/>
<stop offset="0.7" stop-color="#FCD70A" stop-opacity="0.64"/>
<stop offset="0.81" stop-color="#FDF004" stop-opacity="0.86"/>
<stop offset="0.88" stop-color="#FFFF00"/>
</linearGradient>
<linearGradient id="paint12_linear_642_10501" x1="13.6927" y1="16.8634" x2="2.42089" y2="28.1601" gradientUnits="userSpaceOnUse">
<stop offset="0.37" stop-color="#FFE53B"/>
<stop offset="0.86" stop-color="#FFCC35" stop-opacity="0"/>
<stop offset="1" stop-color="#FF8125" stop-opacity="0"/>
</linearGradient>
<linearGradient id="paint13_linear_642_10501" x1="5.77681" y1="24.6851" x2="11.172" y2="19.245" gradientUnits="userSpaceOnUse">
<stop stop-color="#F7931E" stop-opacity="0.3"/>
<stop offset="0.11" stop-color="#F7951D" stop-opacity="0.32"/>
<stop offset="0.23" stop-color="#F79C1B" stop-opacity="0.36"/>
<stop offset="0.36" stop-color="#F8A718" stop-opacity="0.43"/>
<stop offset="0.49" stop-color="#F9B713" stop-opacity="0.54"/>
<stop offset="0.62" stop-color="#FBCC0D" stop-opacity="0.67"/>
<stop offset="0.76" stop-color="#FDE507" stop-opacity="0.84"/>
<stop offset="0.88" stop-color="#FFFF00"/>
</linearGradient>
</defs>
</svg>
